<svg xmlns="http://www.w3.org/2000/svg" xmlns:xlink="http://www.w3.org/1999/xlink" width="500" zoomAndPan="magnify" viewBox="0 0 375 374.999991" height="500" preserveAspectRatio="xMidYMid meet" version="1.0"><defs><g/><clipPath id="93d3d2a38f"><path d="M 37.5 135.449219 L 129.671875 135.449219 L 129.671875 227.617188 L 37.5 227.617188 Z M 37.5 135.449219 " clip-rule="nonzero"/></clipPath><clipPath id="b168bb1d53"><path d="M 83.585938 135.449219 C 58.132812 135.449219 37.5 156.082031 37.5 181.535156 C 37.5 206.984375 58.132812 227.617188 83.585938 227.617188 C 109.035156 227.617188 129.671875 206.984375 129.671875 181.535156 C 129.671875 156.082031 109.035156 135.449219 83.585938 135.449219 Z M 83.585938 135.449219 " clip-rule="nonzero"/></clipPath><radialGradient gradientTransform="matrix(1, 0, 0, 1, 37.500004, 135.449047)" gradientUnits="userSpaceOnUse" r="130.348146" cx="0" id="d7f78d751c" cy="0" fx="0" fy="0"><stop stop-opacity="1" stop-color="rgb(36.427307%, 87.684631%, 90.155029%)" offset="0"/><stop stop-opacity="1" stop-color="rgb(36.2854%, 87.454224%, 90.068054%)" offset="0.00390625"/><stop stop-opacity="1" stop-color="rgb(36.141968%, 87.225342%, 89.979553%)" offset="0.0078125"/><stop stop-opacity="1" stop-color="rgb(36.000061%, 86.994934%, 89.892578%)" offset="0.0117188"/><stop stop-opacity="1" stop-color="rgb(35.856628%, 86.764526%, 89.805603%)" offset="0.015625"/><stop stop-opacity="1" stop-color="rgb(35.714722%, 86.535645%, 89.717102%)" offset="0.0195312"/><stop stop-opacity="1" stop-color="rgb(35.572815%, 86.305237%, 89.630127%)" offset="0.0234375"/><stop stop-opacity="1" stop-color="rgb(35.429382%, 86.076355%, 89.543152%)" offset="0.0273438"/><stop stop-opacity="1" stop-color="rgb(35.287476%, 85.845947%, 89.454651%)" offset="0.03125"/><stop stop-opacity="1" stop-color="rgb(35.144043%, 85.617065%, 89.367676%)" offset="0.0351562"/><stop stop-opacity="1" stop-color="rgb(35.002136%, 85.386658%, 89.280701%)" offset="0.0390625"/><stop stop-opacity="1" stop-color="rgb(34.858704%, 85.157776%, 89.1922%)" offset="0.0429688"/><stop stop-opacity="1" stop-color="rgb(34.716797%, 84.927368%, 89.105225%)" offset="0.046875"/><stop stop-opacity="1" stop-color="rgb(34.573364%, 84.698486%, 89.01825%)" offset="0.0507812"/><stop stop-opacity="1" stop-color="rgb(34.431458%, 84.468079%, 88.929749%)" offset="0.0546875"/><stop stop-opacity="1" stop-color="rgb(34.289551%, 84.239197%, 88.842773%)" offset="0.0585938"/><stop stop-opacity="1" stop-color="rgb(34.146118%, 84.008789%, 88.754272%)" offset="0.0625"/><stop stop-opacity="1" stop-color="rgb(34.004211%, 83.779907%, 88.667297%)" offset="0.0664062"/><stop stop-opacity="1" stop-color="rgb(33.860779%, 83.5495%, 88.580322%)" offset="0.0703125"/><stop stop-opacity="1" stop-color="rgb(33.718872%, 83.320618%, 88.491821%)" offset="0.0742188"/><stop stop-opacity="1" stop-color="rgb(33.575439%, 83.09021%, 88.404846%)" offset="0.078125"/><stop stop-opacity="1" stop-color="rgb(33.433533%, 82.859802%, 88.317871%)" offset="0.0820312"/><stop stop-opacity="1" stop-color="rgb(33.2901%, 82.63092%, 88.22937%)" offset="0.0859375"/><stop stop-opacity="1" stop-color="rgb(33.148193%, 82.400513%, 88.142395%)" offset="0.0898438"/><stop stop-opacity="1" stop-color="rgb(33.006287%, 82.171631%, 88.05542%)" offset="0.09375"/><stop stop-opacity="1" stop-color="rgb(32.862854%, 81.941223%, 87.966919%)" offset="0.0976562"/><stop stop-opacity="1" stop-color="rgb(32.720947%, 81.712341%, 87.879944%)" offset="0.101562"/><stop stop-opacity="1" stop-color="rgb(32.577515%, 81.481934%, 87.792969%)" offset="0.105469"/><stop stop-opacity="1" stop-color="rgb(32.435608%, 81.253052%, 87.704468%)" offset="0.109375"/><stop stop-opacity="1" stop-color="rgb(32.292175%, 81.022644%, 87.617493%)" offset="0.113281"/><stop stop-opacity="1" stop-color="rgb(32.150269%, 80.793762%, 87.530518%)" offset="0.117188"/><stop stop-opacity="1" stop-color="rgb(32.008362%, 80.563354%, 87.442017%)" offset="0.121094"/><stop stop-opacity="1" stop-color="rgb(31.864929%, 80.334473%, 87.355042%)" offset="0.125"/><stop stop-opacity="1" stop-color="rgb(31.723022%, 80.104065%, 87.268066%)" offset="0.128906"/><stop stop-opacity="1" stop-color="rgb(31.57959%, 79.875183%, 87.179565%)" offset="0.132812"/><stop stop-opacity="1" stop-color="rgb(31.437683%, 79.644775%, 87.09259%)" offset="0.136719"/><stop stop-opacity="1" stop-color="rgb(31.29425%, 79.415894%, 87.005615%)" offset="0.140625"/><stop stop-opacity="1" stop-color="rgb(31.152344%, 79.185486%, 86.917114%)" offset="0.144531"/><stop stop-opacity="1" stop-color="rgb(31.008911%, 78.956604%, 86.830139%)" offset="0.148438"/><stop stop-opacity="1" stop-color="rgb(30.867004%, 78.726196%, 86.743164%)" offset="0.152344"/><stop stop-opacity="1" stop-color="rgb(30.725098%, 78.495789%, 86.654663%)" offset="0.15625"/><stop stop-opacity="1" stop-color="rgb(30.581665%, 78.266907%, 86.567688%)" offset="0.160156"/><stop stop-opacity="1" stop-color="rgb(30.439758%, 78.036499%, 86.480713%)" offset="0.164062"/><stop stop-opacity="1" stop-color="rgb(30.296326%, 77.807617%, 86.392212%)" offset="0.167969"/><stop stop-opacity="1" stop-color="rgb(30.154419%, 77.577209%, 86.305237%)" offset="0.171875"/><stop stop-opacity="1" stop-color="rgb(30.010986%, 77.348328%, 86.216736%)" offset="0.175781"/><stop stop-opacity="1" stop-color="rgb(29.86908%, 77.11792%, 86.129761%)" offset="0.179688"/><stop stop-opacity="1" stop-color="rgb(29.725647%, 76.889038%, 86.042786%)" offset="0.183594"/><stop stop-opacity="1" stop-color="rgb(29.58374%, 76.65863%, 85.954285%)" offset="0.1875"/><stop stop-opacity="1" stop-color="rgb(29.441833%, 76.429749%, 85.86731%)" offset="0.191406"/><stop stop-opacity="1" stop-color="rgb(29.298401%, 76.199341%, 85.780334%)" offset="0.195312"/><stop stop-opacity="1" stop-color="rgb(29.156494%, 75.970459%, 85.691833%)" offset="0.199219"/><stop stop-opacity="1" stop-color="rgb(29.013062%, 75.740051%, 85.604858%)" offset="0.203125"/><stop stop-opacity="1" stop-color="rgb(28.871155%, 75.511169%, 85.517883%)" offset="0.207031"/><stop stop-opacity="1" stop-color="rgb(28.727722%, 75.280762%, 85.429382%)" offset="0.210938"/><stop stop-opacity="1" stop-color="rgb(28.585815%, 75.05188%, 85.342407%)" offset="0.214844"/><stop stop-opacity="1" stop-color="rgb(28.443909%, 74.821472%, 85.255432%)" offset="0.21875"/><stop stop-opacity="1" stop-color="rgb(28.300476%, 74.591064%, 85.166931%)" offset="0.222656"/><stop stop-opacity="1" stop-color="rgb(28.158569%, 74.362183%, 85.079956%)" offset="0.226562"/><stop stop-opacity="1" stop-color="rgb(28.015137%, 74.131775%, 84.992981%)" offset="0.230469"/><stop stop-opacity="1" stop-color="rgb(27.87323%, 73.902893%, 84.90448%)" offset="0.234375"/><stop stop-opacity="1" stop-color="rgb(27.729797%, 73.672485%, 84.817505%)" offset="0.238281"/><stop stop-opacity="1" stop-color="rgb(27.587891%, 73.443604%, 84.73053%)" offset="0.242188"/><stop stop-opacity="1" stop-color="rgb(27.444458%, 73.213196%, 84.642029%)" offset="0.246094"/><stop stop-opacity="1" stop-color="rgb(27.302551%, 72.984314%, 84.555054%)" offset="0.25"/><stop stop-opacity="1" stop-color="rgb(27.160645%, 72.753906%, 84.468079%)" offset="0.253906"/><stop stop-opacity="1" stop-color="rgb(27.017212%, 72.525024%, 84.379578%)" offset="0.257812"/><stop stop-opacity="1" stop-color="rgb(26.875305%, 72.294617%, 84.292603%)" offset="0.261719"/><stop stop-opacity="1" stop-color="rgb(26.731873%, 72.065735%, 84.205627%)" offset="0.265625"/><stop stop-opacity="1" stop-color="rgb(26.589966%, 71.835327%, 84.117126%)" offset="0.269531"/><stop stop-opacity="1" stop-color="rgb(26.446533%, 71.606445%, 84.030151%)" offset="0.273438"/><stop stop-opacity="1" stop-color="rgb(26.304626%, 71.376038%, 83.943176%)" offset="0.277344"/><stop stop-opacity="1" stop-color="rgb(26.161194%, 71.147156%, 83.854675%)" offset="0.28125"/><stop stop-opacity="1" stop-color="rgb(26.019287%, 70.916748%, 83.7677%)" offset="0.285156"/><stop stop-opacity="1" stop-color="rgb(25.87738%, 70.687866%, 83.680725%)" offset="0.289062"/><stop stop-opacity="1" stop-color="rgb(25.733948%, 70.457458%, 83.592224%)" offset="0.292969"/><stop stop-opacity="1" stop-color="rgb(25.592041%, 70.227051%, 83.505249%)" offset="0.296875"/><stop stop-opacity="1" stop-color="rgb(25.448608%, 69.998169%, 83.416748%)" offset="0.300781"/><stop stop-opacity="1" stop-color="rgb(25.306702%, 69.767761%, 83.329773%)" offset="0.304688"/><stop stop-opacity="1" stop-color="rgb(25.163269%, 69.538879%, 83.242798%)" offset="0.308594"/><stop stop-opacity="1" stop-color="rgb(25.021362%, 69.308472%, 83.154297%)" offset="0.3125"/><stop stop-opacity="1" stop-color="rgb(24.879456%, 69.07959%, 83.067322%)" offset="0.316406"/><stop stop-opacity="1" stop-color="rgb(24.736023%, 68.849182%, 82.980347%)" offset="0.320312"/><stop stop-opacity="1" stop-color="rgb(24.594116%, 68.6203%, 82.891846%)" offset="0.324219"/><stop stop-opacity="1" stop-color="rgb(24.450684%, 68.389893%, 82.804871%)" offset="0.328125"/><stop stop-opacity="1" stop-color="rgb(24.308777%, 68.161011%, 82.717896%)" offset="0.332031"/><stop stop-opacity="1" stop-color="rgb(24.165344%, 67.930603%, 82.629395%)" offset="0.335938"/><stop stop-opacity="1" stop-color="rgb(24.023438%, 67.701721%, 82.542419%)" offset="0.339844"/><stop stop-opacity="1" stop-color="rgb(23.880005%, 67.471313%, 82.455444%)" offset="0.34375"/><stop stop-opacity="1" stop-color="rgb(23.738098%, 67.242432%, 82.366943%)" offset="0.347656"/><stop stop-opacity="1" stop-color="rgb(23.596191%, 67.012024%, 82.279968%)" offset="0.351562"/><stop stop-opacity="1" stop-color="rgb(23.452759%, 66.783142%, 82.192993%)" offset="0.355469"/><stop stop-opacity="1" stop-color="rgb(23.310852%, 66.552734%, 82.104492%)" offset="0.359375"/><stop stop-opacity="1" stop-color="rgb(23.167419%, 66.322327%, 82.017517%)" offset="0.363281"/><stop stop-opacity="1" stop-color="rgb(23.025513%, 66.093445%, 81.930542%)" offset="0.367188"/><stop stop-opacity="1" stop-color="rgb(22.88208%, 65.863037%, 81.842041%)" offset="0.371094"/><stop stop-opacity="1" stop-color="rgb(22.740173%, 65.634155%, 81.755066%)" offset="0.375"/><stop stop-opacity="1" stop-color="rgb(22.596741%, 65.403748%, 81.668091%)" offset="0.378906"/><stop stop-opacity="1" stop-color="rgb(22.454834%, 65.174866%, 81.57959%)" offset="0.382812"/><stop stop-opacity="1" stop-color="rgb(22.312927%, 64.944458%, 81.492615%)" offset="0.386719"/><stop stop-opacity="1" stop-color="rgb(22.169495%, 64.715576%, 81.40564%)" offset="0.390625"/><stop stop-opacity="1" stop-color="rgb(22.027588%, 64.485168%, 81.317139%)" offset="0.394531"/><stop stop-opacity="1" stop-color="rgb(21.884155%, 64.256287%, 81.230164%)" offset="0.398438"/><stop stop-opacity="1" stop-color="rgb(21.742249%, 64.025879%, 81.143188%)" offset="0.402344"/><stop stop-opacity="1" stop-color="rgb(21.598816%, 63.796997%, 81.054688%)" offset="0.40625"/><stop stop-opacity="1" stop-color="rgb(21.456909%, 63.566589%, 80.967712%)" offset="0.410156"/><stop stop-opacity="1" stop-color="rgb(21.315002%, 63.337708%, 80.880737%)" offset="0.414062"/><stop stop-opacity="1" stop-color="rgb(21.17157%, 63.1073%, 80.792236%)" offset="0.417969"/><stop stop-opacity="1" stop-color="rgb(21.029663%, 62.878418%, 80.705261%)" offset="0.421875"/><stop stop-opacity="1" stop-color="rgb(20.88623%, 62.64801%, 80.61676%)" offset="0.425781"/><stop stop-opacity="1" stop-color="rgb(20.744324%, 62.419128%, 80.529785%)" offset="0.429688"/><stop stop-opacity="1" stop-color="rgb(20.600891%, 62.188721%, 80.44281%)" offset="0.433594"/><stop stop-opacity="1" stop-color="rgb(20.458984%, 61.958313%, 80.354309%)" offset="0.4375"/><stop stop-opacity="1" stop-color="rgb(20.315552%, 61.729431%, 80.267334%)" offset="0.441406"/><stop stop-opacity="1" stop-color="rgb(20.173645%, 61.499023%, 80.180359%)" offset="0.445312"/><stop stop-opacity="1" stop-color="rgb(20.031738%, 61.270142%, 80.091858%)" offset="0.449219"/><stop stop-opacity="1" stop-color="rgb(19.888306%, 61.039734%, 80.004883%)" offset="0.453125"/><stop stop-opacity="1" stop-color="rgb(19.746399%, 60.810852%, 79.917908%)" offset="0.457031"/><stop stop-opacity="1" stop-color="rgb(19.602966%, 60.580444%, 79.829407%)" offset="0.460938"/><stop stop-opacity="1" stop-color="rgb(19.46106%, 60.351562%, 79.742432%)" offset="0.464844"/><stop stop-opacity="1" stop-color="rgb(19.317627%, 60.121155%, 79.655457%)" offset="0.46875"/><stop stop-opacity="1" stop-color="rgb(19.17572%, 59.892273%, 79.566956%)" offset="0.472656"/><stop stop-opacity="1" stop-color="rgb(19.032288%, 59.661865%, 79.47998%)" offset="0.476562"/><stop stop-opacity="1" stop-color="rgb(18.890381%, 59.432983%, 79.393005%)" offset="0.480469"/><stop stop-opacity="1" stop-color="rgb(18.748474%, 59.202576%, 79.304504%)" offset="0.484375"/><stop stop-opacity="1" stop-color="rgb(18.605042%, 58.973694%, 79.217529%)" offset="0.488281"/><stop stop-opacity="1" stop-color="rgb(18.463135%, 58.743286%, 79.130554%)" offset="0.492188"/><stop stop-opacity="1" stop-color="rgb(18.319702%, 58.514404%, 79.042053%)" offset="0.496094"/><stop stop-opacity="1" stop-color="rgb(18.177795%, 58.283997%, 78.955078%)" offset="0.5"/><stop stop-opacity="1" stop-color="rgb(18.034363%, 58.053589%, 78.868103%)" offset="0.503906"/><stop stop-opacity="1" stop-color="rgb(17.892456%, 57.824707%, 78.779602%)" offset="0.507812"/><stop stop-opacity="1" stop-color="rgb(17.750549%, 57.594299%, 78.692627%)" offset="0.511719"/><stop stop-opacity="1" stop-color="rgb(17.607117%, 57.365417%, 78.605652%)" offset="0.515625"/><stop stop-opacity="1" stop-color="rgb(17.46521%, 57.13501%, 78.517151%)" offset="0.519531"/><stop stop-opacity="1" stop-color="rgb(17.321777%, 56.906128%, 78.430176%)" offset="0.523438"/><stop stop-opacity="1" stop-color="rgb(17.179871%, 56.67572%, 78.343201%)" offset="0.527344"/><stop stop-opacity="1" stop-color="rgb(17.036438%, 56.446838%, 78.2547%)" offset="0.53125"/><stop stop-opacity="1" stop-color="rgb(16.894531%, 56.216431%, 78.167725%)" offset="0.535156"/><stop stop-opacity="1" stop-color="rgb(16.751099%, 55.987549%, 78.08075%)" offset="0.539062"/><stop stop-opacity="1" stop-color="rgb(16.609192%, 55.757141%, 77.992249%)" offset="0.542969"/><stop stop-opacity="1" stop-color="rgb(16.467285%, 55.528259%, 77.905273%)" offset="0.546875"/><stop stop-opacity="1" stop-color="rgb(16.323853%, 55.297852%, 77.816772%)" offset="0.550781"/><stop stop-opacity="1" stop-color="rgb(16.181946%, 55.06897%, 77.729797%)" offset="0.554688"/><stop stop-opacity="1" stop-color="rgb(16.038513%, 54.838562%, 77.642822%)" offset="0.558594"/><stop stop-opacity="1" stop-color="rgb(15.896606%, 54.60968%, 77.554321%)" offset="0.5625"/><stop stop-opacity="1" stop-color="rgb(15.753174%, 54.379272%, 77.467346%)" offset="0.566406"/><stop stop-opacity="1" stop-color="rgb(15.611267%, 54.148865%, 77.380371%)" offset="0.570312"/><stop stop-opacity="1" stop-color="rgb(15.467834%, 53.919983%, 77.29187%)" offset="0.574219"/><stop stop-opacity="1" stop-color="rgb(15.325928%, 53.689575%, 77.204895%)" offset="0.578125"/><stop stop-opacity="1" stop-color="rgb(15.184021%, 53.460693%, 77.11792%)" offset="0.582031"/><stop stop-opacity="1" stop-color="rgb(15.040588%, 53.230286%, 77.029419%)" offset="0.585938"/><stop stop-opacity="1" stop-color="rgb(14.898682%, 53.001404%, 76.942444%)" offset="0.589844"/><stop stop-opacity="1" stop-color="rgb(14.755249%, 52.770996%, 76.855469%)" offset="0.59375"/><stop stop-opacity="1" stop-color="rgb(14.613342%, 52.542114%, 76.766968%)" offset="0.597656"/><stop stop-opacity="1" stop-color="rgb(14.46991%, 52.311707%, 76.679993%)" offset="0.601562"/><stop stop-opacity="1" stop-color="rgb(14.328003%, 52.082825%, 76.593018%)" offset="0.605469"/><stop stop-opacity="1" stop-color="rgb(14.186096%, 51.852417%, 76.504517%)" offset="0.609375"/><stop stop-opacity="1" stop-color="rgb(14.042664%, 51.623535%, 76.417542%)" offset="0.613281"/><stop stop-opacity="1" stop-color="rgb(13.900757%, 51.393127%, 76.330566%)" offset="0.617188"/><stop stop-opacity="1" stop-color="rgb(13.757324%, 51.164246%, 76.242065%)" offset="0.621094"/><stop stop-opacity="1" stop-color="rgb(13.615417%, 50.933838%, 76.15509%)" offset="0.625"/><stop stop-opacity="1" stop-color="rgb(13.471985%, 50.704956%, 76.068115%)" offset="0.628906"/><stop stop-opacity="1" stop-color="rgb(13.330078%, 50.474548%, 75.979614%)" offset="0.632812"/><stop stop-opacity="1" stop-color="rgb(13.186646%, 50.245667%, 75.892639%)" offset="0.636719"/><stop stop-opacity="1" stop-color="rgb(13.044739%, 50.015259%, 75.805664%)" offset="0.640625"/><stop stop-opacity="1" stop-color="rgb(12.902832%, 49.784851%, 75.717163%)" offset="0.644531"/><stop stop-opacity="1" stop-color="rgb(12.759399%, 49.555969%, 75.630188%)" offset="0.648438"/><stop stop-opacity="1" stop-color="rgb(12.617493%, 49.325562%, 75.543213%)" offset="0.652344"/><stop stop-opacity="1" stop-color="rgb(12.47406%, 49.09668%, 75.454712%)" offset="0.65625"/><stop stop-opacity="1" stop-color="rgb(12.332153%, 48.866272%, 75.367737%)" offset="0.660156"/><stop stop-opacity="1" stop-color="rgb(12.188721%, 48.63739%, 75.279236%)" offset="0.664062"/><stop stop-opacity="1" stop-color="rgb(12.046814%, 48.406982%, 75.192261%)" offset="0.667969"/><stop stop-opacity="1" stop-color="rgb(11.903381%, 48.178101%, 75.105286%)" offset="0.671875"/><stop stop-opacity="1" stop-color="rgb(11.761475%, 47.947693%, 75.016785%)" offset="0.675781"/><stop stop-opacity="1" stop-color="rgb(11.619568%, 47.718811%, 74.92981%)" offset="0.679688"/><stop stop-opacity="1" stop-color="rgb(11.476135%, 47.488403%, 74.842834%)" offset="0.683594"/><stop stop-opacity="1" stop-color="rgb(11.334229%, 47.259521%, 74.754333%)" offset="0.6875"/><stop stop-opacity="1" stop-color="rgb(11.190796%, 47.029114%, 74.667358%)" offset="0.691406"/><stop stop-opacity="1" stop-color="rgb(11.048889%, 46.800232%, 74.580383%)" offset="0.695312"/><stop stop-opacity="1" stop-color="rgb(10.905457%, 46.569824%, 74.491882%)" offset="0.699219"/><stop stop-opacity="1" stop-color="rgb(10.76355%, 46.340942%, 74.404907%)" offset="0.703125"/><stop stop-opacity="1" stop-color="rgb(10.621643%, 46.110535%, 74.317932%)" offset="0.707031"/><stop stop-opacity="1" stop-color="rgb(10.47821%, 45.880127%, 74.229431%)" offset="0.710938"/><stop stop-opacity="1" stop-color="rgb(10.336304%, 45.651245%, 74.142456%)" offset="0.714844"/><stop stop-opacity="1" stop-color="rgb(10.192871%, 45.420837%, 74.055481%)" offset="0.71875"/><stop stop-opacity="1" stop-color="rgb(10.050964%, 45.191956%, 73.96698%)" offset="0.722656"/><stop stop-opacity="1" stop-color="rgb(9.907532%, 44.961548%, 73.880005%)" offset="0.726562"/><stop stop-opacity="1" stop-color="rgb(9.765625%, 44.732666%, 73.79303%)" offset="0.730469"/><stop stop-opacity="1" stop-color="rgb(9.622192%, 44.502258%, 73.704529%)" offset="0.734375"/><stop stop-opacity="1" stop-color="rgb(9.480286%, 44.273376%, 73.617554%)" offset="0.738281"/><stop stop-opacity="1" stop-color="rgb(9.338379%, 44.042969%, 73.530579%)" offset="0.742188"/><stop stop-opacity="1" stop-color="rgb(9.194946%, 43.814087%, 73.442078%)" offset="0.746094"/><stop stop-opacity="1" stop-color="rgb(9.05304%, 43.583679%, 73.355103%)" offset="0.75"/><stop stop-opacity="1" stop-color="rgb(8.909607%, 43.354797%, 73.268127%)" offset="0.753906"/><stop stop-opacity="1" stop-color="rgb(8.7677%, 43.12439%, 73.179626%)" offset="0.757812"/><stop stop-opacity="1" stop-color="rgb(8.624268%, 42.895508%, 73.092651%)" offset="0.761719"/><stop stop-opacity="1" stop-color="rgb(8.482361%, 42.6651%, 73.005676%)" offset="0.765625"/><stop stop-opacity="1" stop-color="rgb(8.338928%, 42.436218%, 72.917175%)" offset="0.769531"/><stop stop-opacity="1" stop-color="rgb(8.197021%, 42.205811%, 72.8302%)" offset="0.773438"/><stop stop-opacity="1" stop-color="rgb(8.055115%, 41.976929%, 72.743225%)" offset="0.777344"/><stop stop-opacity="1" stop-color="rgb(7.911682%, 41.746521%, 72.654724%)" offset="0.78125"/><stop stop-opacity="1" stop-color="rgb(7.769775%, 41.516113%, 72.567749%)" offset="0.785156"/><stop stop-opacity="1" stop-color="rgb(7.626343%, 41.287231%, 72.479248%)" offset="0.789062"/><stop stop-opacity="1" stop-color="rgb(7.484436%, 41.056824%, 72.392273%)" offset="0.792969"/><stop stop-opacity="1" stop-color="rgb(7.341003%, 40.827942%, 72.305298%)" offset="0.796875"/><stop stop-opacity="1" stop-color="rgb(7.199097%, 40.597534%, 72.216797%)" offset="0.800781"/><stop stop-opacity="1" stop-color="rgb(7.05719%, 40.368652%, 72.129822%)" offset="0.804688"/><stop stop-opacity="1" stop-color="rgb(6.913757%, 40.138245%, 72.042847%)" offset="0.808594"/><stop stop-opacity="1" stop-color="rgb(6.771851%, 39.909363%, 71.954346%)" offset="0.8125"/><stop stop-opacity="1" stop-color="rgb(6.628418%, 39.678955%, 71.867371%)" offset="0.816406"/><stop stop-opacity="1" stop-color="rgb(6.486511%, 39.450073%, 71.780396%)" offset="0.820312"/><stop stop-opacity="1" stop-color="rgb(6.343079%, 39.219666%, 71.691895%)" offset="0.824219"/><stop stop-opacity="1" stop-color="rgb(6.201172%, 38.990784%, 71.604919%)" offset="0.828125"/><stop stop-opacity="1" stop-color="rgb(6.057739%, 38.760376%, 71.517944%)" offset="0.832031"/><stop stop-opacity="1" stop-color="rgb(5.915833%, 38.531494%, 71.429443%)" offset="0.835938"/><stop stop-opacity="1" stop-color="rgb(5.773926%, 38.301086%, 71.342468%)" offset="0.839844"/><stop stop-opacity="1" stop-color="rgb(5.630493%, 38.072205%, 71.255493%)" offset="0.84375"/><stop stop-opacity="1" stop-color="rgb(5.488586%, 37.841797%, 71.166992%)" offset="0.847656"/><stop stop-opacity="1" stop-color="rgb(5.345154%, 37.611389%, 71.080017%)" offset="0.851562"/><stop stop-opacity="1" stop-color="rgb(5.203247%, 37.382507%, 70.993042%)" offset="0.855469"/><stop stop-opacity="1" stop-color="rgb(5.059814%, 37.1521%, 70.904541%)" offset="0.859375"/><stop stop-opacity="1" stop-color="rgb(4.917908%, 36.923218%, 70.817566%)" offset="0.863281"/><stop stop-opacity="1" stop-color="rgb(4.774475%, 36.69281%, 70.730591%)" offset="0.867188"/><stop stop-opacity="1" stop-color="rgb(4.632568%, 36.463928%, 70.64209%)" offset="0.871094"/><stop stop-opacity="1" stop-color="rgb(4.490662%, 36.233521%, 70.555115%)" offset="0.875"/><stop stop-opacity="1" stop-color="rgb(4.347229%, 36.004639%, 70.46814%)" offset="0.878906"/><stop stop-opacity="1" stop-color="rgb(4.205322%, 35.774231%, 70.379639%)" offset="0.882812"/><stop stop-opacity="1" stop-color="rgb(4.06189%, 35.545349%, 70.292664%)" offset="0.886719"/><stop stop-opacity="1" stop-color="rgb(3.919983%, 35.314941%, 70.205688%)" offset="0.890625"/><stop stop-opacity="1" stop-color="rgb(3.77655%, 35.08606%, 70.117188%)" offset="0.894531"/><stop stop-opacity="1" stop-color="rgb(3.634644%, 34.855652%, 70.030212%)" offset="0.898438"/><stop stop-opacity="1" stop-color="rgb(3.492737%, 34.62677%, 69.943237%)" offset="0.902344"/><stop stop-opacity="1" stop-color="rgb(3.349304%, 34.396362%, 69.854736%)" offset="0.90625"/><stop stop-opacity="1" stop-color="rgb(3.207397%, 34.16748%, 69.767761%)" offset="0.910156"/><stop stop-opacity="1" stop-color="rgb(3.063965%, 33.937073%, 69.67926%)" offset="0.914062"/><stop stop-opacity="1" stop-color="rgb(2.922058%, 33.708191%, 69.592285%)" offset="0.917969"/><stop stop-opacity="1" stop-color="rgb(2.778625%, 33.477783%, 69.50531%)" offset="0.921875"/><stop stop-opacity="1" stop-color="rgb(2.636719%, 33.247375%, 69.416809%)" offset="0.925781"/><stop stop-opacity="1" stop-color="rgb(2.493286%, 33.018494%, 69.329834%)" offset="0.929688"/><stop stop-opacity="1" stop-color="rgb(2.351379%, 32.788086%, 69.242859%)" offset="0.933594"/><stop stop-opacity="1" stop-color="rgb(2.209473%, 32.559204%, 69.154358%)" offset="0.9375"/><stop stop-opacity="1" stop-color="rgb(2.06604%, 32.328796%, 69.067383%)" offset="0.941406"/><stop stop-opacity="1" stop-color="rgb(1.924133%, 32.099915%, 68.980408%)" offset="0.945312"/><stop stop-opacity="1" stop-color="rgb(1.780701%, 31.869507%, 68.891907%)" offset="0.949219"/><stop stop-opacity="1" stop-color="rgb(1.638794%, 31.640625%, 68.804932%)" offset="0.953125"/><stop stop-opacity="1" stop-color="rgb(1.495361%, 31.410217%, 68.717957%)" offset="0.957031"/><stop stop-opacity="1" stop-color="rgb(1.353455%, 31.181335%, 68.629456%)" offset="0.960938"/><stop stop-opacity="1" stop-color="rgb(1.210022%, 30.950928%, 68.54248%)" offset="0.964844"/><stop stop-opacity="1" stop-color="rgb(1.068115%, 30.722046%, 68.455505%)" offset="0.96875"/><stop stop-opacity="1" stop-color="rgb(0.926208%, 30.491638%, 68.367004%)" offset="0.972656"/><stop stop-opacity="1" stop-color="rgb(0.782776%, 30.262756%, 68.280029%)" offset="0.976562"/><stop stop-opacity="1" stop-color="rgb(0.640869%, 30.032349%, 68.193054%)" offset="0.980469"/><stop stop-opacity="1" stop-color="rgb(0.497437%, 29.803467%, 68.104553%)" offset="0.984375"/><stop stop-opacity="1" stop-color="rgb(0.35553%, 29.573059%, 68.017578%)" offset="0.988281"/><stop stop-opacity="1" stop-color="rgb(0.212097%, 29.342651%, 67.930603%)" offset="0.992188"/><stop stop-opacity="1" stop-color="rgb(0.0701904%, 29.11377%, 67.842102%)" offset="0.996094"/><stop stop-opacity="1" stop-color="rgb(0%, 28.999329%, 67.799377%)" offset="1"/></radialGradient><clipPath id="005c2f446d"><path d="M 65.960938 155.945312 L 101.210938 155.945312 L 101.210938 206.945312 L 65.960938 206.945312 Z M 65.960938 155.945312 " clip-rule="nonzero"/></clipPath><clipPath id="1e0cb0d950"><path d="M 104 175 L 113.023438 175 L 113.023438 178 L 104 178 Z M 104 175 " clip-rule="nonzero"/></clipPath><clipPath id="d8ef45be17"><path d="M 53.773438 174 L 63 174 L 63 177 L 53.773438 177 Z M 53.773438 174 " clip-rule="nonzero"/></clipPath><clipPath id="ec2859b5af"><path d="M 76 143.675781 L 80 143.675781 L 80 153 L 76 153 Z M 76 143.675781 " clip-rule="nonzero"/></clipPath><clipPath id="ca21abae64"><path d="M 88 143.675781 L 92 143.675781 L 92 153 L 88 153 Z M 88 143.675781 " clip-rule="nonzero"/></clipPath><clipPath id="8020371ae9"><path d="M 83.585938 187.308594 L 129.335938 187.308594 L 129.335938 227.808594 L 83.585938 227.808594 Z M 83.585938 187.308594 " clip-rule="nonzero"/></clipPath><clipPath id="dc341d2582"><path d="M 37.601562 187.972656 L 83.351562 187.972656 L 83.351562 228.472656 L 37.601562 228.472656 Z M 37.601562 187.972656 " clip-rule="nonzero"/></clipPath></defs><rect x="-37.5" width="450" fill="#ffffff" y="-37.499999" height="449.999989" fill-opacity="1"/><rect x="-37.5" width="450" fill="#ffffff" y="-37.499999" height="449.999989" fill-opacity="1"/><g fill="#000000" fill-opacity="0.4"><g transform="translate(133.987628, 191.477361)"><g><path d="M 30.84375 -17.671875 L 30.84375 -10.828125 C 30.03125 -7.078125 28.242188 -4.238281 25.484375 -2.3125 C 22.734375 -0.382812 19.660156 0.578125 16.265625 0.578125 C 12.003906 0.578125 8.375 -1.015625 5.375 -4.203125 C 2.375 -7.398438 0.875 -11.253906 0.875 -15.765625 C 0.875 -20.359375 2.34375 -24.234375 5.28125 -27.390625 C 8.21875 -30.554688 11.878906 -32.140625 16.265625 -32.140625 C 21.390625 -32.140625 25.445312 -30.34375 28.4375 -26.75 L 23.71875 -21.578125 C 22.039062 -24.285156 19.695312 -25.640625 16.6875 -25.640625 C 14.46875 -25.640625 12.570312 -24.675781 11 -22.75 C 9.425781 -20.820312 8.640625 -18.492188 8.640625 -15.765625 C 8.640625 -13.085938 9.425781 -10.796875 11 -8.890625 C 12.570312 -6.992188 14.46875 -6.046875 16.6875 -6.046875 C 18.519531 -6.046875 20.117188 -6.597656 21.484375 -7.703125 C 22.847656 -8.816406 23.53125 -10.289062 23.53125 -12.125 L 16.265625 -12.125 L 16.265625 -17.671875 Z M 30.84375 -17.671875 "/></g></g></g><g fill="#000000" fill-opacity="0.4"><g transform="translate(164.022665, 191.477361)"><g><path d="M 3.625 -2.421875 C 1.789062 -4.429688 0.875 -6.890625 0.875 -9.796875 C 0.875 -12.703125 1.789062 -15.160156 3.625 -17.171875 C 5.46875 -19.191406 7.804688 -20.203125 10.640625 -20.203125 C 13.242188 -20.203125 15.382812 -19.382812 17.0625 -17.75 L 17.0625 -19.625 L 23.84375 -19.625 L 23.84375 0 L 17.140625 0 L 17.140625 -2.21875 L 17.0625 -2.21875 C 15.382812 -0.351562 13.242188 0.578125 10.640625 0.578125 C 7.804688 0.578125 5.46875 -0.421875 3.625 -2.421875 Z M 9.390625 -13.125 C 8.515625 -12.257812 8.078125 -11.148438 8.078125 -9.796875 C 8.078125 -8.441406 8.492188 -7.335938 9.328125 -6.484375 C 10.171875 -5.628906 11.285156 -5.203125 12.671875 -5.203125 C 13.992188 -5.203125 15.082031 -5.632812 15.9375 -6.5 C 16.789062 -7.375 17.21875 -8.472656 17.21875 -9.796875 C 17.21875 -11.148438 16.773438 -12.257812 15.890625 -13.125 C 15.015625 -13.988281 13.941406 -14.421875 12.671875 -14.421875 C 11.367188 -14.421875 10.273438 -13.988281 9.390625 -13.125 Z M 9.390625 -13.125 "/></g></g></g><g fill="#000000" fill-opacity="0.4"><g transform="translate(188.471487, 191.477361)"><g><path d="M 1.421875 4.828125 L 6.96875 2.109375 C 7.988281 3.785156 9.757812 4.625 12.28125 4.625 C 13.457031 4.625 14.546875 4.25 15.546875 3.5 C 16.554688 2.75 17.0625 1.59375 17.0625 0.03125 L 17.0625 -1.421875 C 15.863281 -0.0859375 13.722656 0.578125 10.640625 0.578125 C 7.804688 0.578125 5.46875 -0.421875 3.625 -2.421875 C 1.789062 -4.429688 0.875 -6.890625 0.875 -9.796875 C 0.875 -12.703125 1.789062 -15.160156 3.625 -17.171875 C 5.46875 -19.191406 7.804688 -20.203125 10.640625 -20.203125 C 13.160156 -20.203125 15.265625 -19.425781 16.953125 -17.875 L 17.0625 -17.875 L 17.0625 -19.625 L 23.84375 -19.625 L 23.84375 0.53125 C 23.84375 3.71875 22.78125 6.175781 20.65625 7.90625 C 18.539062 9.644531 15.75 10.515625 12.28125 10.515625 C 6.664062 10.515625 3.046875 8.617188 1.421875 4.828125 Z M 9.390625 -13.125 C 8.515625 -12.257812 8.078125 -11.148438 8.078125 -9.796875 C 8.078125 -8.441406 8.492188 -7.335938 9.328125 -6.484375 C 10.171875 -5.628906 11.285156 -5.203125 12.671875 -5.203125 C 13.992188 -5.203125 15.082031 -5.632812 15.9375 -6.5 C 16.789062 -7.375 17.21875 -8.472656 17.21875 -9.796875 C 17.21875 -11.148438 16.773438 -12.257812 15.890625 -13.125 C 15.015625 -13.988281 13.941406 -14.421875 12.671875 -14.421875 C 11.367188 -14.421875 10.273438 -13.988281 9.390625 -13.125 Z M 9.390625 -13.125 "/></g></g></g><g fill="#000000" fill-opacity="0.4"><g transform="translate(212.920305, 191.477361)"><g><path d="M 3.625 -2.421875 C 1.789062 -4.429688 0.875 -6.890625 0.875 -9.796875 C 0.875 -12.703125 1.789062 -15.160156 3.625 -17.171875 C 5.46875 -19.191406 7.804688 -20.203125 10.640625 -20.203125 C 13.242188 -20.203125 15.382812 -19.382812 17.0625 -17.75 L 17.0625 -19.625 L 23.84375 -19.625 L 23.84375 0 L 17.140625 0 L 17.140625 -2.21875 L 17.0625 -2.21875 C 15.382812 -0.351562 13.242188 0.578125 10.640625 0.578125 C 7.804688 0.578125 5.46875 -0.421875 3.625 -2.421875 Z M 9.390625 -13.125 C 8.515625 -12.257812 8.078125 -11.148438 8.078125 -9.796875 C 8.078125 -8.441406 8.492188 -7.335938 9.328125 -6.484375 C 10.171875 -5.628906 11.285156 -5.203125 12.671875 -5.203125 C 13.992188 -5.203125 15.082031 -5.632812 15.9375 -6.5 C 16.789062 -7.375 17.21875 -8.472656 17.21875 -9.796875 C 17.21875 -11.148438 16.773438 -12.257812 15.890625 -13.125 C 15.015625 -13.988281 13.941406 -14.421875 12.671875 -14.421875 C 11.367188 -14.421875 10.273438 -13.988281 9.390625 -13.125 Z M 9.390625 -13.125 "/></g></g></g><g fill="#000000" fill-opacity="0.4"><g transform="translate(237.369129, 191.477361)"><g><path d="M 2.296875 0 L 2.296875 -19.625 L 9.0625 -19.625 L 9.0625 -17.5625 L 9.140625 -17.5625 C 10.898438 -19.320312 12.773438 -20.203125 14.765625 -20.203125 C 15.734375 -20.203125 16.695312 -20.070312 17.65625 -19.8125 C 18.613281 -19.5625 19.53125 -19.164062 20.40625 -18.625 C 21.289062 -18.09375 22.003906 -17.335938 22.546875 -16.359375 C 23.097656 -15.378906 23.375 -14.238281 23.375 -12.9375 L 23.375 0 L 16.609375 0 L 16.609375 -11.09375 C 16.609375 -12.113281 16.28125 -13.003906 15.625 -13.765625 C 14.976562 -14.535156 14.132812 -14.921875 13.09375 -14.921875 C 12.070312 -14.921875 11.144531 -14.523438 10.3125 -13.734375 C 9.476562 -12.941406 9.0625 -12.0625 9.0625 -11.09375 L 9.0625 0 Z M 2.296875 0 "/></g></g></g><g fill="#000000" fill-opacity="0.4"><g transform="translate(260.976206, 191.477361)"><g/></g></g><g fill="#000000" fill-opacity="0.4"><g transform="translate(269.737734, 191.477361)"><g><path d="M 9.484375 -31.5625 L 9.484375 -6.3125 L 20.359375 -6.3125 L 20.359375 0 L 2.296875 0 L 2.296875 -31.5625 Z M 9.484375 -31.5625 "/></g></g></g><g fill="#000000" fill-opacity="0.4"><g transform="translate(289.671681, 191.477361)"><g><path d="M 3.625 -2.421875 C 1.789062 -4.429688 0.875 -6.890625 0.875 -9.796875 C 0.875 -12.703125 1.789062 -15.160156 3.625 -17.171875 C 5.46875 -19.191406 7.804688 -20.203125 10.640625 -20.203125 C 13.242188 -20.203125 15.382812 -19.382812 17.0625 -17.75 L 17.0625 -19.625 L 23.84375 -19.625 L 23.84375 0 L 17.140625 0 L 17.140625 -2.21875 L 17.0625 -2.21875 C 15.382812 -0.351562 13.242188 0.578125 10.640625 0.578125 C 7.804688 0.578125 5.46875 -0.421875 3.625 -2.421875 Z M 9.390625 -13.125 C 8.515625 -12.257812 8.078125 -11.148438 8.078125 -9.796875 C 8.078125 -8.441406 8.492188 -7.335938 9.328125 -6.484375 C 10.171875 -5.628906 11.285156 -5.203125 12.671875 -5.203125 C 13.992188 -5.203125 15.082031 -5.632812 15.9375 -6.5 C 16.789062 -7.375 17.21875 -8.472656 17.21875 -9.796875 C 17.21875 -11.148438 16.773438 -12.257812 15.890625 -13.125 C 15.015625 -13.988281 13.941406 -14.421875 12.671875 -14.421875 C 11.367188 -14.421875 10.273438 -13.988281 9.390625 -13.125 Z M 9.390625 -13.125 "/></g></g></g><g fill="#000000" fill-opacity="0.4"><g transform="translate(314.120505, 191.477361)"><g><path d="M 22.5 -17.171875 C 24.332031 -15.160156 25.25 -12.703125 25.25 -9.796875 C 25.25 -6.890625 24.332031 -4.429688 22.5 -2.421875 C 20.664062 -0.421875 18.332031 0.578125 15.5 0.578125 C 12.894531 0.578125 10.75 -0.351562 9.0625 -2.21875 L 9 -2.21875 L 9 0 L 2.296875 0 L 2.296875 -32.90625 L 9.0625 -32.90625 L 9.0625 -17.75 C 10.75 -19.382812 12.894531 -20.203125 15.5 -20.203125 C 18.332031 -20.203125 20.664062 -19.191406 22.5 -17.171875 Z M 16.796875 -6.484375 C 17.640625 -7.335938 18.0625 -8.441406 18.0625 -9.796875 C 18.0625 -11.148438 17.617188 -12.257812 16.734375 -13.125 C 15.859375 -13.988281 14.769531 -14.421875 13.46875 -14.421875 C 12.195312 -14.421875 11.117188 -13.988281 10.234375 -13.125 C 9.359375 -12.257812 8.921875 -11.148438 8.921875 -9.796875 C 8.921875 -8.472656 9.347656 -7.375 10.203125 -6.5 C 11.054688 -5.632812 12.144531 -5.203125 13.46875 -5.203125 C 14.84375 -5.203125 15.953125 -5.628906 16.796875 -6.484375 Z M 16.796875 -6.484375 "/></g></g></g><g fill="#000000" fill-opacity="0.4"><g transform="translate(338.569318, 191.477361)"><g><path d="M 10.828125 -20.203125 C 11.953125 -20.203125 13.0625 -20.070312 14.15625 -19.8125 C 15.25 -19.5625 16.066406 -19.3125 16.609375 -19.0625 L 17.40625 -18.671875 L 15.1875 -14.234375 C 13.65625 -15.046875 12.203125 -15.453125 10.828125 -15.453125 C 10.066406 -15.453125 9.523438 -15.367188 9.203125 -15.203125 C 8.878906 -15.046875 8.71875 -14.734375 8.71875 -14.265625 C 8.71875 -14.171875 8.726562 -14.070312 8.75 -13.96875 C 8.78125 -13.863281 8.832031 -13.765625 8.90625 -13.671875 C 8.988281 -13.585938 9.0625 -13.515625 9.125 -13.453125 C 9.1875 -13.390625 9.296875 -13.316406 9.453125 -13.234375 C 9.609375 -13.160156 9.726562 -13.101562 9.8125 -13.0625 C 9.90625 -13.03125 10.050781 -12.972656 10.25 -12.890625 C 10.457031 -12.816406 10.613281 -12.757812 10.71875 -12.71875 C 10.820312 -12.6875 10.992188 -12.628906 11.234375 -12.546875 C 11.472656 -12.472656 11.65625 -12.421875 11.78125 -12.390625 C 12.570312 -12.160156 13.257812 -11.90625 13.84375 -11.625 C 14.4375 -11.351562 15.054688 -10.972656 15.703125 -10.484375 C 16.359375 -9.992188 16.863281 -9.378906 17.21875 -8.640625 C 17.570312 -7.898438 17.75 -7.0625 17.75 -6.125 C 17.75 -1.65625 14.648438 0.578125 8.453125 0.578125 C 7.054688 0.578125 5.722656 0.359375 4.453125 -0.078125 C 3.191406 -0.515625 2.28125 -0.945312 1.71875 -1.375 L 0.875 -2.0625 L 3.640625 -6.703125 C 3.835938 -6.515625 4.101562 -6.300781 4.4375 -6.0625 C 4.769531 -5.820312 5.367188 -5.488281 6.234375 -5.0625 C 7.097656 -4.644531 7.851562 -4.4375 8.5 -4.4375 C 9.894531 -4.4375 10.59375 -4.910156 10.59375 -5.859375 C 10.59375 -6.285156 10.414062 -6.617188 10.0625 -6.859375 C 9.707031 -7.109375 9.101562 -7.382812 8.25 -7.6875 C 7.394531 -8 6.722656 -8.28125 6.234375 -8.53125 C 5.015625 -9.164062 4.046875 -9.882812 3.328125 -10.6875 C 2.609375 -11.5 2.25 -12.566406 2.25 -13.890625 C 2.25 -15.878906 3.019531 -17.425781 4.5625 -18.53125 C 6.113281 -19.644531 8.203125 -20.203125 10.828125 -20.203125 Z M 10.828125 -20.203125 "/></g></g></g><g fill="#000000" fill-opacity="1"><g transform="translate(133.987628, 191.477361)"><g><path d="M 30.84375 -17.671875 L 30.84375 -10.828125 C 30.03125 -7.078125 28.242188 -4.238281 25.484375 -2.3125 C 22.734375 -0.382812 19.660156 0.578125 16.265625 0.578125 C 12.003906 0.578125 8.375 -1.015625 5.375 -4.203125 C 2.375 -7.398438 0.875 -11.253906 0.875 -15.765625 C 0.875 -20.359375 2.34375 -24.234375 5.28125 -27.390625 C 8.21875 -30.554688 11.878906 -32.140625 16.265625 -32.140625 C 21.390625 -32.140625 25.445312 -30.34375 28.4375 -26.75 L 23.71875 -21.578125 C 22.039062 -24.285156 19.695312 -25.640625 16.6875 -25.640625 C 14.46875 -25.640625 12.570312 -24.675781 11 -22.75 C 9.425781 -20.820312 8.640625 -18.492188 8.640625 -15.765625 C 8.640625 -13.085938 9.425781 -10.796875 11 -8.890625 C 12.570312 -6.992188 14.46875 -6.046875 16.6875 -6.046875 C 18.519531 -6.046875 20.117188 -6.597656 21.484375 -7.703125 C 22.847656 -8.816406 23.53125 -10.289062 23.53125 -12.125 L 16.265625 -12.125 L 16.265625 -17.671875 Z M 30.84375 -17.671875 "/></g></g></g><g fill="#000000" fill-opacity="1"><g transform="translate(164.022665, 191.477361)"><g><path d="M 3.625 -2.421875 C 1.789062 -4.429688 0.875 -6.890625 0.875 -9.796875 C 0.875 -12.703125 1.789062 -15.160156 3.625 -17.171875 C 5.46875 -19.191406 7.804688 -20.203125 10.640625 -20.203125 C 13.242188 -20.203125 15.382812 -19.382812 17.0625 -17.75 L 17.0625 -19.625 L 23.84375 -19.625 L 23.84375 0 L 17.140625 0 L 17.140625 -2.21875 L 17.0625 -2.21875 C 15.382812 -0.351562 13.242188 0.578125 10.640625 0.578125 C 7.804688 0.578125 5.46875 -0.421875 3.625 -2.421875 Z M 9.390625 -13.125 C 8.515625 -12.257812 8.078125 -11.148438 8.078125 -9.796875 C 8.078125 -8.441406 8.492188 -7.335938 9.328125 -6.484375 C 10.171875 -5.628906 11.285156 -5.203125 12.671875 -5.203125 C 13.992188 -5.203125 15.082031 -5.632812 15.9375 -6.5 C 16.789062 -7.375 17.21875 -8.472656 17.21875 -9.796875 C 17.21875 -11.148438 16.773438 -12.257812 15.890625 -13.125 C 15.015625 -13.988281 13.941406 -14.421875 12.671875 -14.421875 C 11.367188 -14.421875 10.273438 -13.988281 9.390625 -13.125 Z M 9.390625 -13.125 "/></g></g></g><g fill="#000000" fill-opacity="1"><g transform="translate(188.471487, 191.477361)"><g><path d="M 1.421875 4.828125 L 6.96875 2.109375 C 7.988281 3.785156 9.757812 4.625 12.28125 4.625 C 13.457031 4.625 14.546875 4.25 15.546875 3.5 C 16.554688 2.75 17.0625 1.59375 17.0625 0.03125 L 17.0625 -1.421875 C 15.863281 -0.0859375 13.722656 0.578125 10.640625 0.578125 C 7.804688 0.578125 5.46875 -0.421875 3.625 -2.421875 C 1.789062 -4.429688 0.875 -6.890625 0.875 -9.796875 C 0.875 -12.703125 1.789062 -15.160156 3.625 -17.171875 C 5.46875 -19.191406 7.804688 -20.203125 10.640625 -20.203125 C 13.160156 -20.203125 15.265625 -19.425781 16.953125 -17.875 L 17.0625 -17.875 L 17.0625 -19.625 L 23.84375 -19.625 L 23.84375 0.53125 C 23.84375 3.71875 22.78125 6.175781 20.65625 7.90625 C 18.539062 9.644531 15.75 10.515625 12.28125 10.515625 C 6.664062 10.515625 3.046875 8.617188 1.421875 4.828125 Z M 9.390625 -13.125 C 8.515625 -12.257812 8.078125 -11.148438 8.078125 -9.796875 C 8.078125 -8.441406 8.492188 -7.335938 9.328125 -6.484375 C 10.171875 -5.628906 11.285156 -5.203125 12.671875 -5.203125 C 13.992188 -5.203125 15.082031 -5.632812 15.9375 -6.5 C 16.789062 -7.375 17.21875 -8.472656 17.21875 -9.796875 C 17.21875 -11.148438 16.773438 -12.257812 15.890625 -13.125 C 15.015625 -13.988281 13.941406 -14.421875 12.671875 -14.421875 C 11.367188 -14.421875 10.273438 -13.988281 9.390625 -13.125 Z M 9.390625 -13.125 "/></g></g></g><g fill="#000000" fill-opacity="1"><g transform="translate(212.920305, 191.477361)"><g><path d="M 3.625 -2.421875 C 1.789062 -4.429688 0.875 -6.890625 0.875 -9.796875 C 0.875 -12.703125 1.789062 -15.160156 3.625 -17.171875 C 5.46875 -19.191406 7.804688 -20.203125 10.640625 -20.203125 C 13.242188 -20.203125 15.382812 -19.382812 17.0625 -17.75 L 17.0625 -19.625 L 23.84375 -19.625 L 23.84375 0 L 17.140625 0 L 17.140625 -2.21875 L 17.0625 -2.21875 C 15.382812 -0.351562 13.242188 0.578125 10.640625 0.578125 C 7.804688 0.578125 5.46875 -0.421875 3.625 -2.421875 Z M 9.390625 -13.125 C 8.515625 -12.257812 8.078125 -11.148438 8.078125 -9.796875 C 8.078125 -8.441406 8.492188 -7.335938 9.328125 -6.484375 C 10.171875 -5.628906 11.285156 -5.203125 12.671875 -5.203125 C 13.992188 -5.203125 15.082031 -5.632812 15.9375 -6.5 C 16.789062 -7.375 17.21875 -8.472656 17.21875 -9.796875 C 17.21875 -11.148438 16.773438 -12.257812 15.890625 -13.125 C 15.015625 -13.988281 13.941406 -14.421875 12.671875 -14.421875 C 11.367188 -14.421875 10.273438 -13.988281 9.390625 -13.125 Z M 9.390625 -13.125 "/></g></g></g><g fill="#000000" fill-opacity="1"><g transform="translate(237.369129, 191.477361)"><g><path d="M 2.296875 0 L 2.296875 -19.625 L 9.0625 -19.625 L 9.0625 -17.5625 L 9.140625 -17.5625 C 10.898438 -19.320312 12.773438 -20.203125 14.765625 -20.203125 C 15.734375 -20.203125 16.695312 -20.070312 17.65625 -19.8125 C 18.613281 -19.5625 19.53125 -19.164062 20.40625 -18.625 C 21.289062 -18.09375 22.003906 -17.335938 22.546875 -16.359375 C 23.097656 -15.378906 23.375 -14.238281 23.375 -12.9375 L 23.375 0 L 16.609375 0 L 16.609375 -11.09375 C 16.609375 -12.113281 16.28125 -13.003906 15.625 -13.765625 C 14.976562 -14.535156 14.132812 -14.921875 13.09375 -14.921875 C 12.070312 -14.921875 11.144531 -14.523438 10.3125 -13.734375 C 9.476562 -12.941406 9.0625 -12.0625 9.0625 -11.09375 L 9.0625 0 Z M 2.296875 0 "/></g></g></g><g fill="#000000" fill-opacity="1"><g transform="translate(260.976206, 191.477361)"><g/></g></g><g fill="#000000" fill-opacity="1"><g transform="translate(269.737734, 191.477361)"><g><path d="M 9.484375 -31.5625 L 9.484375 -6.3125 L 20.359375 -6.3125 L 20.359375 0 L 2.296875 0 L 2.296875 -31.5625 Z M 9.484375 -31.5625 "/></g></g></g><g fill="#000000" fill-opacity="1"><g transform="translate(289.671681, 191.477361)"><g><path d="M 3.625 -2.421875 C 1.789062 -4.429688 0.875 -6.890625 0.875 -9.796875 C 0.875 -12.703125 1.789062 -15.160156 3.625 -17.171875 C 5.46875 -19.191406 7.804688 -20.203125 10.640625 -20.203125 C 13.242188 -20.203125 15.382812 -19.382812 17.0625 -17.75 L 17.0625 -19.625 L 23.84375 -19.625 L 23.84375 0 L 17.140625 0 L 17.140625 -2.21875 L 17.0625 -2.21875 C 15.382812 -0.351562 13.242188 0.578125 10.640625 0.578125 C 7.804688 0.578125 5.46875 -0.421875 3.625 -2.421875 Z M 9.390625 -13.125 C 8.515625 -12.257812 8.078125 -11.148438 8.078125 -9.796875 C 8.078125 -8.441406 8.492188 -7.335938 9.328125 -6.484375 C 10.171875 -5.628906 11.285156 -5.203125 12.671875 -5.203125 C 13.992188 -5.203125 15.082031 -5.632812 15.9375 -6.5 C 16.789062 -7.375 17.21875 -8.472656 17.21875 -9.796875 C 17.21875 -11.148438 16.773438 -12.257812 15.890625 -13.125 C 15.015625 -13.988281 13.941406 -14.421875 12.671875 -14.421875 C 11.367188 -14.421875 10.273438 -13.988281 9.390625 -13.125 Z M 9.390625 -13.125 "/></g></g></g><g fill="#000000" fill-opacity="1"><g transform="translate(314.120505, 191.477361)"><g><path d="M 22.5 -17.171875 C 24.332031 -15.160156 25.25 -12.703125 25.25 -9.796875 C 25.25 -6.890625 24.332031 -4.429688 22.5 -2.421875 C 20.664062 -0.421875 18.332031 0.578125 15.5 0.578125 C 12.894531 0.578125 10.75 -0.351562 9.0625 -2.21875 L 9 -2.21875 L 9 0 L 2.296875 0 L 2.296875 -32.90625 L 9.0625 -32.90625 L 9.0625 -17.75 C 10.75 -19.382812 12.894531 -20.203125 15.5 -20.203125 C 18.332031 -20.203125 20.664062 -19.191406 22.5 -17.171875 Z M 16.796875 -6.484375 C 17.640625 -7.335938 18.0625 -8.441406 18.0625 -9.796875 C 18.0625 -11.148438 17.617188 -12.257812 16.734375 -13.125 C 15.859375 -13.988281 14.769531 -14.421875 13.46875 -14.421875 C 12.195312 -14.421875 11.117188 -13.988281 10.234375 -13.125 C 9.359375 -12.257812 8.921875 -11.148438 8.921875 -9.796875 C 8.921875 -8.472656 9.347656 -7.375 10.203125 -6.5 C 11.054688 -5.632812 12.144531 -5.203125 13.46875 -5.203125 C 14.84375 -5.203125 15.953125 -5.628906 16.796875 -6.484375 Z M 16.796875 -6.484375 "/></g></g></g><g fill="#000000" fill-opacity="1"><g transform="translate(338.569318, 191.477361)"><g><path d="M 10.828125 -20.203125 C 11.953125 -20.203125 13.0625 -20.070312 14.15625 -19.8125 C 15.25 -19.5625 16.066406 -19.3125 16.609375 -19.0625 L 17.40625 -18.671875 L 15.1875 -14.234375 C 13.65625 -15.046875 12.203125 -15.453125 10.828125 -15.453125 C 10.066406 -15.453125 9.523438 -15.367188 9.203125 -15.203125 C 8.878906 -15.046875 8.71875 -14.734375 8.71875 -14.265625 C 8.71875 -14.171875 8.726562 -14.070312 8.75 -13.96875 C 8.78125 -13.863281 8.832031 -13.765625 8.90625 -13.671875 C 8.988281 -13.585938 9.0625 -13.515625 9.125 -13.453125 C 9.1875 -13.390625 9.296875 -13.316406 9.453125 -13.234375 C 9.609375 -13.160156 9.726562 -13.101562 9.8125 -13.0625 C 9.90625 -13.03125 10.050781 -12.972656 10.25 -12.890625 C 10.457031 -12.816406 10.613281 -12.757812 10.71875 -12.71875 C 10.820312 -12.6875 10.992188 -12.628906 11.234375 -12.546875 C 11.472656 -12.472656 11.65625 -12.421875 11.78125 -12.390625 C 12.570312 -12.160156 13.257812 -11.90625 13.84375 -11.625 C 14.4375 -11.351562 15.054688 -10.972656 15.703125 -10.484375 C 16.359375 -9.992188 16.863281 -9.378906 17.21875 -8.640625 C 17.570312 -7.898438 17.75 -7.0625 17.75 -6.125 C 17.75 -1.65625 14.648438 0.578125 8.453125 0.578125 C 7.054688 0.578125 5.722656 0.359375 4.453125 -0.078125 C 3.191406 -0.515625 2.28125 -0.945312 1.71875 -1.375 L 0.875 -2.0625 L 3.640625 -6.703125 C 3.835938 -6.515625 4.101562 -6.300781 4.4375 -6.0625 C 4.769531 -5.820312 5.367188 -5.488281 6.234375 -5.0625 C 7.097656 -4.644531 7.851562 -4.4375 8.5 -4.4375 C 9.894531 -4.4375 10.59375 -4.910156 10.59375 -5.859375 C 10.59375 -6.285156 10.414062 -6.617188 10.0625 -6.859375 C 9.707031 -7.109375 9.101562 -7.382812 8.25 -7.6875 C 7.394531 -8 6.722656 -8.28125 6.234375 -8.53125 C 5.015625 -9.164062 4.046875 -9.882812 3.328125 -10.6875 C 2.609375 -11.5 2.25 -12.566406 2.25 -13.890625 C 2.25 -15.878906 3.019531 -17.425781 4.5625 -18.53125 C 6.113281 -19.644531 8.203125 -20.203125 10.828125 -20.203125 Z M 10.828125 -20.203125 "/></g></g></g><g fill="#000000" fill-opacity="1"><g transform="translate(145.396254, 214.461579)"><g><path d="M 0.75 -6.359375 L 2.234375 -6.359375 L 2.234375 0 L 0.75 0 Z M 0.75 -6.359375 "/></g></g></g><g fill="#000000" fill-opacity="1"><g transform="translate(155.657187, 214.461579)"><g><path d="M 0.75 -6.359375 L 3.640625 -6.359375 C 4.335938 -6.359375 4.953125 -6.226562 5.484375 -5.96875 C 6.015625 -5.707031 6.425781 -5.335938 6.71875 -4.859375 C 7.007812 -4.378906 7.15625 -3.820312 7.15625 -3.1875 C 7.15625 -2.550781 7.007812 -1.992188 6.71875 -1.515625 C 6.425781 -1.035156 6.015625 -0.660156 5.484375 -0.390625 C 4.953125 -0.128906 4.335938 0 3.640625 0 L 0.75 0 Z M 3.578125 -1.203125 C 4.210938 -1.203125 4.71875 -1.378906 5.09375 -1.734375 C 5.476562 -2.097656 5.671875 -2.582031 5.671875 -3.1875 C 5.671875 -3.789062 5.476562 -4.269531 5.09375 -4.625 C 4.71875 -4.976562 4.210938 -5.15625 3.578125 -5.15625 L 2.234375 -5.15625 L 2.234375 -1.203125 Z M 3.578125 -1.203125 "/></g></g></g><g fill="#000000" fill-opacity="1"><g transform="translate(170.44681, 214.461579)"><g><path d="M 5.6875 -1.1875 L 5.6875 0 L 0.75 0 L 0.75 -6.359375 L 5.5625 -6.359375 L 5.5625 -5.1875 L 2.21875 -5.1875 L 2.21875 -3.796875 L 5.171875 -3.796875 L 5.171875 -2.65625 L 2.21875 -2.65625 L 2.21875 -1.1875 Z M 5.6875 -1.1875 "/></g></g></g><g fill="#000000" fill-opacity="1"><g transform="translate(183.826897, 214.461579)"><g><path d="M 4.953125 -1.359375 L 1.984375 -1.359375 L 1.421875 0 L -0.078125 0 L 2.75 -6.359375 L 4.203125 -6.359375 L 7.0625 0 L 5.515625 0 Z M 4.484375 -2.484375 L 3.46875 -4.921875 L 2.46875 -2.484375 Z M 4.484375 -2.484375 "/></g></g></g><g fill="#000000" fill-opacity="1"><g transform="translate(198.070899, 214.461579)"><g><path d="M 2.84375 0.109375 C 2.34375 0.109375 1.859375 0.0390625 1.390625 -0.09375 C 0.921875 -0.226562 0.539062 -0.40625 0.25 -0.625 L 0.75 -1.734375 C 1.019531 -1.535156 1.34375 -1.375 1.71875 -1.25 C 2.101562 -1.132812 2.484375 -1.078125 2.859375 -1.078125 C 3.273438 -1.078125 3.582031 -1.140625 3.78125 -1.265625 C 3.976562 -1.390625 4.078125 -1.550781 4.078125 -1.75 C 4.078125 -1.90625 4.019531 -2.03125 3.90625 -2.125 C 3.789062 -2.226562 3.640625 -2.3125 3.453125 -2.375 C 3.265625 -2.4375 3.015625 -2.503906 2.703125 -2.578125 C 2.210938 -2.691406 1.8125 -2.804688 1.5 -2.921875 C 1.195312 -3.035156 0.929688 -3.21875 0.703125 -3.46875 C 0.484375 -3.726562 0.375 -4.070312 0.375 -4.5 C 0.375 -4.863281 0.472656 -5.195312 0.671875 -5.5 C 0.878906 -5.800781 1.179688 -6.035156 1.578125 -6.203125 C 1.984375 -6.378906 2.476562 -6.46875 3.0625 -6.46875 C 3.46875 -6.46875 3.863281 -6.421875 4.25 -6.328125 C 4.644531 -6.234375 4.988281 -6.09375 5.28125 -5.90625 L 4.8125 -4.796875 C 4.226562 -5.128906 3.644531 -5.296875 3.0625 -5.296875 C 2.644531 -5.296875 2.335938 -5.226562 2.140625 -5.09375 C 1.941406 -4.957031 1.84375 -4.78125 1.84375 -4.5625 C 1.84375 -4.34375 1.957031 -4.179688 2.1875 -4.078125 C 2.414062 -3.972656 2.765625 -3.867188 3.234375 -3.765625 C 3.710938 -3.648438 4.109375 -3.535156 4.421875 -3.421875 C 4.734375 -3.304688 5 -3.125 5.21875 -2.875 C 5.4375 -2.625 5.546875 -2.285156 5.546875 -1.859375 C 5.546875 -1.492188 5.441406 -1.160156 5.234375 -0.859375 C 5.035156 -0.566406 4.734375 -0.332031 4.328125 -0.15625 C 3.921875 0.0195312 3.425781 0.109375 2.84375 0.109375 Z M 2.84375 0.109375 "/></g></g></g><g fill="#000000" fill-opacity="1"><g transform="translate(211.1509, 214.461579)"><g/></g></g><g fill="#000000" fill-opacity="1"><g transform="translate(221.002614, 214.461579)"><g><path d="M 5.421875 -3.3125 C 5.785156 -3.195312 6.070312 -3.003906 6.28125 -2.734375 C 6.488281 -2.460938 6.59375 -2.128906 6.59375 -1.734375 C 6.59375 -1.179688 6.375 -0.753906 5.9375 -0.453125 C 5.507812 -0.148438 4.878906 0 4.046875 0 L 0.75 0 L 0.75 -6.359375 L 3.859375 -6.359375 C 4.640625 -6.359375 5.238281 -6.207031 5.65625 -5.90625 C 6.070312 -5.613281 6.28125 -5.210938 6.28125 -4.703125 C 6.28125 -4.398438 6.203125 -4.125 6.046875 -3.875 C 5.898438 -3.632812 5.691406 -3.445312 5.421875 -3.3125 Z M 2.21875 -5.25 L 2.21875 -3.75 L 3.6875 -3.75 C 4.050781 -3.75 4.328125 -3.8125 4.515625 -3.9375 C 4.703125 -4.070312 4.796875 -4.265625 4.796875 -4.515625 C 4.796875 -4.765625 4.703125 -4.945312 4.515625 -5.0625 C 4.328125 -5.1875 4.050781 -5.25 3.6875 -5.25 Z M 3.9375 -1.109375 C 4.320312 -1.109375 4.613281 -1.171875 4.8125 -1.296875 C 5.007812 -1.421875 5.109375 -1.617188 5.109375 -1.890625 C 5.109375 -2.421875 4.71875 -2.6875 3.9375 -2.6875 L 2.21875 -2.6875 L 2.21875 -1.109375 Z M 3.9375 -1.109375 "/></g></g></g><g fill="#000000" fill-opacity="1"><g transform="translate(235.237519, 214.461579)"><g><path d="M 5.6875 -1.1875 L 5.6875 0 L 0.75 0 L 0.75 -6.359375 L 5.5625 -6.359375 L 5.5625 -5.1875 L 2.21875 -5.1875 L 2.21875 -3.796875 L 5.171875 -3.796875 L 5.171875 -2.65625 L 2.21875 -2.65625 L 2.21875 -1.1875 Z M 5.6875 -1.1875 "/></g></g></g><g fill="#000000" fill-opacity="1"><g transform="translate(248.617607, 214.461579)"><g><path d="M 3.8125 -2.25 L 3.8125 0 L 2.34375 0 L 2.34375 -2.28125 L -0.125 -6.359375 L 1.4375 -6.359375 L 3.140625 -3.53125 L 4.84375 -6.359375 L 6.28125 -6.359375 Z M 3.8125 -2.25 "/></g></g></g><g fill="#000000" fill-opacity="1"><g transform="translate(262.043174, 214.461579)"><g><path d="M 3.84375 0.109375 C 3.175781 0.109375 2.578125 -0.03125 2.046875 -0.3125 C 1.515625 -0.601562 1.097656 -1 0.796875 -1.5 C 0.503906 -2 0.359375 -2.5625 0.359375 -3.1875 C 0.359375 -3.8125 0.503906 -4.375 0.796875 -4.875 C 1.097656 -5.375 1.515625 -5.765625 2.046875 -6.046875 C 2.578125 -6.328125 3.175781 -6.46875 3.84375 -6.46875 C 4.5 -6.46875 5.085938 -6.328125 5.609375 -6.046875 C 6.140625 -5.765625 6.554688 -5.375 6.859375 -4.875 C 7.171875 -4.375 7.328125 -3.8125 7.328125 -3.1875 C 7.328125 -2.5625 7.171875 -2 6.859375 -1.5 C 6.554688 -1 6.140625 -0.601562 5.609375 -0.3125 C 5.085938 -0.03125 4.5 0.109375 3.84375 0.109375 Z M 3.84375 -1.140625 C 4.21875 -1.140625 4.554688 -1.226562 4.859375 -1.40625 C 5.160156 -1.582031 5.394531 -1.820312 5.5625 -2.125 C 5.738281 -2.4375 5.828125 -2.789062 5.828125 -3.1875 C 5.828125 -3.582031 5.738281 -3.929688 5.5625 -4.234375 C 5.394531 -4.546875 5.160156 -4.785156 4.859375 -4.953125 C 4.554688 -5.128906 4.21875 -5.21875 3.84375 -5.21875 C 3.46875 -5.21875 3.125 -5.128906 2.8125 -4.953125 C 2.507812 -4.785156 2.269531 -4.546875 2.09375 -4.234375 C 1.925781 -3.929688 1.84375 -3.582031 1.84375 -3.1875 C 1.84375 -2.789062 1.925781 -2.4375 2.09375 -2.125 C 2.269531 -1.820312 2.507812 -1.582031 2.8125 -1.40625 C 3.125 -1.226562 3.46875 -1.140625 3.84375 -1.140625 Z M 3.84375 -1.140625 "/></g></g></g><g fill="#000000" fill-opacity="1"><g transform="translate(276.996492, 214.461579)"><g><path d="M 6.59375 -6.359375 L 6.59375 0 L 5.390625 0 L 2.203125 -3.859375 L 2.203125 0 L 0.75 0 L 0.75 -6.359375 L 1.96875 -6.359375 L 5.140625 -2.5 L 5.140625 -6.359375 Z M 6.59375 -6.359375 "/></g></g></g><g fill="#000000" fill-opacity="1"><g transform="translate(291.622429, 214.461579)"><g><path d="M 0.75 -6.359375 L 3.640625 -6.359375 C 4.335938 -6.359375 4.953125 -6.226562 5.484375 -5.96875 C 6.015625 -5.707031 6.425781 -5.335938 6.71875 -4.859375 C 7.007812 -4.378906 7.15625 -3.820312 7.15625 -3.1875 C 7.15625 -2.550781 7.007812 -1.992188 6.71875 -1.515625 C 6.425781 -1.035156 6.015625 -0.660156 5.484375 -0.390625 C 4.953125 -0.128906 4.335938 0 3.640625 0 L 0.75 0 Z M 3.578125 -1.203125 C 4.210938 -1.203125 4.71875 -1.378906 5.09375 -1.734375 C 5.476562 -2.097656 5.671875 -2.582031 5.671875 -3.1875 C 5.671875 -3.789062 5.476562 -4.269531 5.09375 -4.625 C 4.71875 -4.976562 4.210938 -5.15625 3.578125 -5.15625 L 2.234375 -5.15625 L 2.234375 -1.203125 Z M 3.578125 -1.203125 "/></g></g></g><g fill="#000000" fill-opacity="1"><g transform="translate(306.412052, 214.461579)"><g/></g></g><g fill="#000000" fill-opacity="1"><g transform="translate(316.263766, 214.461579)"><g><path d="M 2.84375 0.109375 C 2.34375 0.109375 1.859375 0.0390625 1.390625 -0.09375 C 0.921875 -0.226562 0.539062 -0.40625 0.25 -0.625 L 0.75 -1.734375 C 1.019531 -1.535156 1.34375 -1.375 1.71875 -1.25 C 2.101562 -1.132812 2.484375 -1.078125 2.859375 -1.078125 C 3.273438 -1.078125 3.582031 -1.140625 3.78125 -1.265625 C 3.976562 -1.390625 4.078125 -1.550781 4.078125 -1.75 C 4.078125 -1.90625 4.019531 -2.03125 3.90625 -2.125 C 3.789062 -2.226562 3.640625 -2.3125 3.453125 -2.375 C 3.265625 -2.4375 3.015625 -2.503906 2.703125 -2.578125 C 2.210938 -2.691406 1.8125 -2.804688 1.5 -2.921875 C 1.195312 -3.035156 0.929688 -3.21875 0.703125 -3.46875 C 0.484375 -3.726562 0.375 -4.070312 0.375 -4.5 C 0.375 -4.863281 0.472656 -5.195312 0.671875 -5.5 C 0.878906 -5.800781 1.179688 -6.035156 1.578125 -6.203125 C 1.984375 -6.378906 2.476562 -6.46875 3.0625 -6.46875 C 3.46875 -6.46875 3.863281 -6.421875 4.25 -6.328125 C 4.644531 -6.234375 4.988281 -6.09375 5.28125 -5.90625 L 4.8125 -4.796875 C 4.226562 -5.128906 3.644531 -5.296875 3.0625 -5.296875 C 2.644531 -5.296875 2.335938 -5.226562 2.140625 -5.09375 C 1.941406 -4.957031 1.84375 -4.78125 1.84375 -4.5625 C 1.84375 -4.34375 1.957031 -4.179688 2.1875 -4.078125 C 2.414062 -3.972656 2.765625 -3.867188 3.234375 -3.765625 C 3.710938 -3.648438 4.109375 -3.535156 4.421875 -3.421875 C 4.734375 -3.304688 5 -3.125 5.21875 -2.875 C 5.4375 -2.625 5.546875 -2.285156 5.546875 -1.859375 C 5.546875 -1.492188 5.441406 -1.160156 5.234375 -0.859375 C 5.035156 -0.566406 4.734375 -0.332031 4.328125 -0.15625 C 3.921875 0.0195312 3.425781 0.109375 2.84375 0.109375 Z M 2.84375 0.109375 "/></g></g></g><g fill="#000000" fill-opacity="1"><g transform="translate(329.343767, 214.461579)"><g><path d="M 3.078125 -2.5 L 2.21875 -1.609375 L 2.21875 0 L 0.75 0 L 0.75 -6.359375 L 2.21875 -6.359375 L 2.21875 -3.390625 L 5.03125 -6.359375 L 6.671875 -6.359375 L 4.03125 -3.53125 L 6.828125 0 L 5.109375 0 Z M 3.078125 -2.5 "/></g></g></g><g fill="#000000" fill-opacity="1"><g transform="translate(343.351334, 214.461579)"><g><path d="M 3.8125 -2.25 L 3.8125 0 L 2.34375 0 L 2.34375 -2.28125 L -0.125 -6.359375 L 1.4375 -6.359375 L 3.140625 -3.53125 L 4.84375 -6.359375 L 6.28125 -6.359375 Z M 3.8125 -2.25 "/></g></g></g><g clip-path="url(#93d3d2a38f)"><g clip-path="url(#b168bb1d53)"><path fill="url(#d7f78d751c)" d="M 37.5 135.449219 L 37.5 227.617188 L 129.671875 227.617188 L 129.671875 135.449219 Z M 37.5 135.449219 " fill-rule="nonzero"/></g></g><g clip-path="url(#005c2f446d)"><path fill="#f6b900" d="M 78.3125 202.585938 C 78.714844 205.128906 80.917969 207.070312 83.582031 207.070312 C 86.242188 207.070312 88.449219 205.128906 88.847656 202.585938 C 88.882812 202.367188 88.828125 202.164062 88.6875 201.988281 C 88.546875 201.816406 88.347656 201.726562 88.132812 201.726562 L 79.039062 201.726562 C 78.824219 201.726562 78.628906 201.816406 78.484375 201.988281 C 78.335938 202.164062 78.28125 202.359375 78.3125 202.585938 Z M 89.382812 193.539062 C 91.066406 193.539062 92.433594 194.90625 92.433594 196.589844 C 92.433594 198.273438 91.066406 199.640625 89.382812 199.640625 L 77.78125 199.640625 C 76.097656 199.640625 74.726562 198.273438 74.726562 196.589844 C 74.726562 195.578125 75.226562 194.679688 75.988281 194.125 L 88.011719 184.761719 C 88.914062 184.054688 89.882812 183.273438 90.816406 182.578125 C 92.117188 181.523438 93.195312 180.1875 93.945312 178.675781 C 94.683594 177.167969 95.105469 175.441406 95.105469 173.605469 C 95.105469 170.421875 93.8125 167.542969 91.726562 165.457031 C 89.640625 163.371094 86.761719 162.078125 83.582031 162.078125 C 80.398438 162.078125 77.519531 163.371094 75.433594 165.457031 C 73.347656 167.542969 72.054688 170.421875 72.054688 173.605469 C 72.054688 175.808594 72.664062 177.863281 73.71875 179.589844 C 74.816406 181.394531 76.402344 182.882812 78.289062 183.847656 C 79.777344 184.617188 80.367188 186.453125 79.605469 187.941406 C 78.832031 189.429688 77 190.019531 75.511719 189.257812 C 72.632812 187.769531 70.207031 185.511719 68.523438 182.75 C 66.90625 180.078125 65.960938 176.949219 65.960938 173.605469 C 65.960938 168.738281 67.9375 164.339844 71.121094 161.144531 C 74.316406 157.960938 78.714844 155.984375 83.582031 155.984375 C 88.449219 155.984375 92.847656 157.960938 96.039062 161.144531 C 99.222656 164.328125 101.199219 168.738281 101.199219 173.605469 C 101.199219 176.363281 100.546875 178.992188 99.398438 181.347656 C 98.246094 183.683594 96.605469 185.726562 94.605469 187.34375 C 93.617188 188.171875 92.378906 189.09375 91.359375 189.886719 L 86.664062 193.539062 Z M 89.382812 193.539062 " fill-opacity="1" fill-rule="evenodd"/></g><g clip-path="url(#1e0cb0d950)"><path fill="#f6b900" d="M 112.746094 177.214844 L 112.671875 177.214844 L 105.164062 176.257812 C 105.011719 176.238281 104.890625 176.167969 104.796875 176.046875 C 104.703125 175.921875 104.664062 175.785156 104.683594 175.632812 C 104.703125 175.480469 104.773438 175.359375 104.898438 175.265625 C 105.019531 175.171875 105.15625 175.136719 105.308594 175.15625 L 112.8125 176.136719 C 112.964844 176.144531 113.089844 176.207031 113.191406 176.324219 C 113.289062 176.4375 113.335938 176.570312 113.324219 176.722656 C 113.316406 176.875 113.253906 177 113.140625 177.101562 C 113.023438 177.203125 112.890625 177.25 112.738281 177.238281 Z M 112.746094 177.214844 " fill-opacity="1" fill-rule="nonzero"/></g><g clip-path="url(#d8ef45be17)"><path fill="#f6b900" d="M 54.445312 176.671875 C 54.292969 176.679688 54.160156 176.632812 54.046875 176.53125 C 53.933594 176.429688 53.871094 176.300781 53.863281 176.148438 C 53.855469 175.996094 53.902344 175.863281 54.003906 175.75 C 54.105469 175.636719 54.234375 175.578125 54.386719 175.566406 L 61.910156 174.730469 C 62.0625 174.714844 62.199219 174.753906 62.316406 174.847656 C 62.4375 174.945312 62.503906 175.070312 62.523438 175.222656 C 62.539062 175.375 62.5 175.507812 62.402344 175.628906 C 62.308594 175.746094 62.183594 175.816406 62.03125 175.832031 L 54.507812 176.671875 Z M 54.445312 176.671875 " fill-opacity="1" fill-rule="nonzero"/></g><path fill="#f6b900" d="M 63.34375 165.492188 C 63.273438 165.488281 63.207031 165.476562 63.140625 165.453125 L 56.101562 162.703125 C 55.953125 162.648438 55.84375 162.554688 55.777344 162.410156 C 55.710938 162.269531 55.707031 162.125 55.765625 161.976562 C 55.824219 161.832031 55.925781 161.730469 56.070312 161.667969 C 56.214844 161.609375 56.359375 161.613281 56.503906 161.675781 L 63.554688 164.433594 C 63.679688 164.476562 63.777344 164.558594 63.84375 164.675781 C 63.910156 164.792969 63.933594 164.917969 63.90625 165.050781 C 63.882812 165.183594 63.820312 165.292969 63.714844 165.378906 C 63.609375 165.464844 63.488281 165.503906 63.355469 165.5 Z M 63.34375 165.492188 " fill-opacity="1" fill-rule="nonzero"/><path fill="#f6b900" d="M 69.332031 156.960938 C 69.160156 156.960938 69.023438 156.898438 68.910156 156.769531 L 63.949219 151.058594 C 63.851562 150.941406 63.808594 150.804688 63.824219 150.652344 C 63.835938 150.5 63.902344 150.375 64.019531 150.277344 C 64.136719 150.179688 64.269531 150.136719 64.421875 150.152344 C 64.574219 150.164062 64.703125 150.230469 64.800781 150.347656 L 69.761719 156.058594 C 69.859375 156.171875 69.90625 156.304688 69.894531 156.457031 C 69.882812 156.609375 69.820312 156.734375 69.707031 156.835938 C 69.597656 156.925781 69.472656 156.96875 69.332031 156.960938 Z M 69.332031 156.960938 " fill-opacity="1" fill-rule="nonzero"/><g clip-path="url(#ec2859b5af)"><path fill="#f6b900" d="M 78.625 152.199219 C 78.496094 152.203125 78.378906 152.164062 78.273438 152.085938 C 78.171875 152.003906 78.105469 151.902344 78.074219 151.773438 L 76.347656 144.410156 C 76.3125 144.257812 76.335938 144.113281 76.421875 143.984375 C 76.503906 143.851562 76.621094 143.765625 76.773438 143.730469 C 76.925781 143.695312 77.066406 143.71875 77.199219 143.804688 C 77.332031 143.886719 77.417969 144.003906 77.453125 144.15625 L 79.195312 151.519531 C 79.230469 151.671875 79.207031 151.8125 79.125 151.941406 C 79.046875 152.070312 78.929688 152.152344 78.78125 152.1875 C 78.730469 152.199219 78.675781 152.203125 78.625 152.199219 Z M 78.625 152.199219 " fill-opacity="1" fill-rule="nonzero"/></g><g clip-path="url(#ca21abae64)"><path fill="#f6b900" d="M 89.0625 152.308594 C 89.015625 152.316406 88.96875 152.316406 88.921875 152.308594 C 88.777344 152.273438 88.664062 152.1875 88.585938 152.058594 C 88.511719 151.925781 88.488281 151.789062 88.527344 151.640625 L 90.394531 144.28125 C 90.433594 144.136719 90.519531 144.023438 90.648438 143.945312 C 90.78125 143.867188 90.921875 143.847656 91.066406 143.886719 C 91.214844 143.925781 91.328125 144.007812 91.40625 144.140625 C 91.484375 144.269531 91.503906 144.410156 91.464844 144.558594 L 89.597656 151.890625 C 89.566406 152.011719 89.5 152.113281 89.402344 152.191406 C 89.300781 152.269531 89.1875 152.308594 89.0625 152.308594 Z M 89.0625 152.308594 " fill-opacity="1" fill-rule="nonzero"/></g><path fill="#f6b900" d="M 98.242188 157.238281 C 98 157.238281 97.832031 157.132812 97.734375 156.914062 C 97.636719 156.695312 97.667969 156.496094 97.828125 156.316406 L 102.902344 150.699219 C 103.007812 150.585938 103.136719 150.527344 103.289062 150.519531 C 103.441406 150.511719 103.578125 150.558594 103.691406 150.664062 C 103.804688 150.765625 103.863281 150.894531 103.871094 151.050781 C 103.878906 151.203125 103.828125 151.335938 103.726562 151.449219 L 98.648438 157.054688 C 98.539062 157.175781 98.402344 157.238281 98.242188 157.238281 Z M 98.242188 157.238281 " fill-opacity="1" fill-rule="nonzero"/><path fill="#f6b900" d="M 104.0625 165.875 C 103.929688 165.875 103.808594 165.832031 103.707031 165.746094 C 103.605469 165.660156 103.542969 165.550781 103.519531 165.421875 C 103.496094 165.289062 103.519531 165.164062 103.585938 165.050781 C 103.652344 164.933594 103.75 164.851562 103.875 164.808594 L 110.976562 162.1875 C 111.113281 162.148438 111.246094 162.164062 111.375 162.230469 C 111.5 162.292969 111.589844 162.394531 111.640625 162.527344 C 111.691406 162.664062 111.6875 162.796875 111.632812 162.929688 C 111.578125 163.0625 111.484375 163.160156 111.355469 163.21875 L 104.277344 165.84375 C 104.207031 165.867188 104.136719 165.878906 104.0625 165.875 Z M 104.0625 165.875 " fill-opacity="1" fill-rule="nonzero"/><g clip-path="url(#8020371ae9)"><path fill="#ffffff" d="M 83.597656 212.429688 L 83.609375 211.976562 L 83.640625 211.550781 C 83.726562 210.414062 83.941406 209.28125 84.273438 208.179688 C 84.605469 207.078125 85.070312 206.007812 85.640625 205 C 86.214844 203.992188 86.898438 203.042969 87.675781 202.171875 C 88.460938 201.304688 89.332031 200.511719 90.289062 199.828125 C 91.25 199.144531 92.28125 198.554688 93.371094 198.09375 C 94.464844 197.628906 95.605469 197.273438 96.777344 197.054688 C 97.945312 196.835938 99.136719 196.738281 100.328125 196.773438 C 100.726562 196.785156 101.125 196.8125 101.523438 196.851562 C 101.648438 196.660156 101.773438 196.472656 101.90625 196.285156 C 102.46875 195.488281 103.089844 194.730469 103.757812 194.019531 C 104.421875 193.304688 105.140625 192.636719 105.902344 192.023438 C 106.664062 191.410156 107.464844 190.84375 108.304688 190.34375 C 109.140625 189.839844 110.015625 189.394531 110.914062 189.007812 C 111.816406 188.625 112.746094 188.308594 113.6875 188.050781 C 114.632812 187.796875 115.59375 187.609375 116.5625 187.492188 C 117.53125 187.371094 118.507812 187.316406 119.476562 187.332031 L 120.160156 187.355469 L 120.539062 187.378906 L 120.929688 187.40625 C 121.179688 187.425781 121.414062 187.453125 121.660156 187.480469 C 121.902344 187.503906 122.140625 187.542969 122.382812 187.578125 C 123.34375 187.726562 124.292969 187.941406 125.222656 188.222656 C 126.148438 188.503906 127.058594 188.847656 127.9375 189.253906 C 128.8125 189.65625 129.660156 190.128906 130.46875 190.648438 C 131.28125 191.167969 132.046875 191.75 132.773438 192.375 C 133.5 193 134.175781 193.675781 134.804688 194.394531 C 135.699219 195.417969 136.488281 196.527344 137.160156 197.699219 C 137.75 197.648438 138.339844 197.628906 138.925781 197.644531 C 139.078125 197.648438 139.230469 197.652344 139.378906 197.660156 L 139.394531 197.664062 C 139.386719 197.664062 139.5 197.664062 139.453125 197.664062 L 139.460938 197.664062 L 139.484375 197.667969 L 139.535156 197.671875 L 139.632812 197.679688 L 139.832031 197.699219 L 140.027344 197.714844 C 140.097656 197.722656 140.152344 197.726562 140.238281 197.738281 L 140.71875 197.796875 C 141.046875 197.832031 141.332031 197.898438 141.632812 197.953125 C 141.78125 197.976562 141.925781 198.015625 142.074219 198.050781 L 142.511719 198.15625 C 142.804688 198.238281 143.089844 198.324219 143.378906 198.414062 L 143.800781 198.566406 C 143.941406 198.613281 144.082031 198.664062 144.222656 198.722656 C 144.496094 198.839844 144.777344 198.949219 145.042969 199.082031 L 145.445312 199.273438 L 145.839844 199.484375 C 146.363281 199.761719 146.859375 200.085938 147.34375 200.417969 C 147.582031 200.59375 147.816406 200.769531 148.046875 200.949219 L 148.550781 201.371094 L 149.03125 201.816406 C 149.140625 201.917969 149.238281 202.023438 149.339844 202.128906 C 149.441406 202.234375 149.546875 202.332031 149.640625 202.441406 L 149.929688 202.765625 L 150.074219 202.929688 L 150.207031 203.097656 L 150.476562 203.433594 C 150.652344 203.664062 150.820312 203.898438 150.984375 204.132812 C 151.296875 204.613281 151.601562 205.09375 151.855469 205.601562 C 151.917969 205.730469 151.984375 205.855469 152.046875 205.980469 L 152.21875 206.367188 C 152.339844 206.621094 152.433594 206.890625 152.539062 207.148438 C 152.59375 207.277344 152.632812 207.414062 152.679688 207.546875 L 152.808594 207.941406 C 152.882812 208.214844 152.960938 208.480469 153.023438 208.75 C 153.078125 209.023438 153.148438 209.289062 153.1875 209.5625 L 153.253906 209.972656 C 153.277344 210.105469 153.285156 210.242188 153.300781 210.378906 C 153.316406 210.515625 153.332031 210.652344 153.34375 210.789062 L 153.363281 211.199219 C 153.386719 211.46875 153.375 211.742188 153.375 212.011719 C 153.375 212.144531 153.367188 212.28125 153.359375 212.414062 L 153.335938 212.820312 C 153.3125 213.085938 153.277344 213.351562 153.242188 213.617188 C 153.195312 213.351562 153.15625 213.089844 153.101562 212.832031 L 153.019531 212.445312 C 152.992188 212.316406 152.964844 212.1875 152.925781 212.0625 C 152.855469 211.808594 152.796875 211.554688 152.714844 211.308594 L 152.597656 210.9375 C 152.554688 210.816406 152.507812 210.695312 152.464844 210.574219 C 152.417969 210.453125 152.375 210.332031 152.324219 210.214844 L 152.175781 209.859375 C 152.082031 209.621094 151.960938 209.398438 151.855469 209.167969 C 151.742188 208.941406 151.613281 208.71875 151.496094 208.5 C 151.363281 208.285156 151.242188 208.066406 151.105469 207.855469 C 150.964844 207.648438 150.835938 207.4375 150.683594 207.238281 L 150.460938 206.941406 C 150.382812 206.84375 150.304688 206.746094 150.226562 206.652344 C 149.917969 206.265625 149.585938 205.90625 149.242188 205.558594 C 149.066406 205.390625 148.886719 205.222656 148.707031 205.0625 L 148.429688 204.828125 L 148.292969 204.710938 L 148.148438 204.601562 L 147.863281 204.378906 C 147.769531 204.304688 147.667969 204.242188 147.570312 204.167969 C 147.472656 204.101562 147.378906 204.03125 147.277344 203.964844 L 146.976562 203.773438 L 146.824219 203.675781 L 146.671875 203.585938 L 146.363281 203.410156 C 146.15625 203.296875 145.945312 203.191406 145.734375 203.085938 C 145.308594 202.886719 144.878906 202.699219 144.441406 202.550781 L 144.109375 202.4375 L 143.777344 202.335938 C 143.558594 202.265625 143.332031 202.21875 143.109375 202.160156 C 143 202.132812 142.886719 202.109375 142.773438 202.089844 L 142.433594 202.023438 C 142.207031 201.988281 141.980469 201.953125 141.757812 201.925781 L 141.417969 201.894531 C 141.304688 201.882812 141.191406 201.871094 141.078125 201.867188 C 140.855469 201.859375 140.617188 201.839844 140.417969 201.847656 L 140.105469 201.847656 C 140.0625 201.847656 139.988281 201.851562 139.921875 201.851562 L 139.726562 201.859375 L 139.527344 201.867188 L 139.429688 201.871094 L 139.378906 201.875 L 139.347656 201.875 C 139.296875 201.875 139.410156 201.875 139.394531 201.875 L 139.386719 201.878906 C 139.273438 201.886719 139.160156 201.894531 139.050781 201.910156 C 138.601562 201.957031 138.164062 202.023438 137.726562 202.117188 C 137.296875 202.214844 136.867188 202.332031 136.453125 202.46875 L 134.851562 203.003906 L 133.8125 201.316406 C 133.039062 200.066406 132.113281 198.929688 131.066406 197.9375 C 130.542969 197.4375 129.988281 196.980469 129.410156 196.554688 C 128.832031 196.128906 128.222656 195.75 127.601562 195.40625 C 126.976562 195.0625 126.332031 194.769531 125.671875 194.511719 C 125.011719 194.253906 124.339844 194.042969 123.65625 193.875 C 122.972656 193.707031 122.277344 193.585938 121.582031 193.511719 C 121.40625 193.496094 121.230469 193.476562 121.058594 193.464844 C 120.882812 193.453125 120.699219 193.4375 120.535156 193.433594 L 120.050781 193.417969 L 119.476562 193.417969 C 118.777344 193.4375 118.078125 193.492188 117.386719 193.597656 C 116.699219 193.703125 116.015625 193.855469 115.347656 194.046875 C 114.679688 194.238281 114.027344 194.476562 113.390625 194.753906 C 112.753906 195.03125 112.136719 195.351562 111.539062 195.714844 C 110.949219 196.074219 110.371094 196.46875 109.828125 196.90625 C 109.285156 197.339844 108.773438 197.8125 108.285156 198.3125 C 107.800781 198.8125 107.351562 199.347656 106.9375 199.90625 C 106.519531 200.464844 106.140625 201.054688 105.804688 201.664062 L 104.605469 203.832031 L 102.316406 203.191406 C 101.582031 202.984375 100.824219 202.847656 100.058594 202.796875 C 99.289062 202.746094 98.511719 202.761719 97.746094 202.871094 C 96.984375 202.976562 96.226562 203.152344 95.496094 203.414062 C 94.765625 203.675781 94.054688 204.007812 93.382812 204.417969 C 92.710938 204.828125 92.078125 205.308594 91.5 205.855469 C 90.921875 206.398438 90.390625 207.003906 89.929688 207.660156 C 89.8125 207.824219 89.707031 207.996094 89.59375 208.160156 C 89.488281 208.332031 89.390625 208.507812 89.285156 208.679688 C 89.191406 208.859375 89.09375 209.039062 89.003906 209.21875 C 88.921875 209.402344 88.828125 209.585938 88.75 209.773438 C 88.429688 210.519531 88.1875 211.304688 88.019531 212.113281 L 87.960938 212.417969 L 87.917969 212.699219 C 87.902344 212.792969 87.886719 212.878906 87.871094 212.984375 L 87.839844 213.351562 L 87.820312 213.535156 L 87.8125 213.628906 L 87.8125 213.660156 C 87.808594 213.714844 87.8125 213.605469 87.8125 213.621094 L 87.808594 213.660156 L 87.792969 213.972656 C 87.789062 214.078125 87.777344 214.183594 87.78125 214.285156 L 87.78125 214.601562 C 87.78125 215.441406 87.875 216.289062 88.050781 217.125 C 88.226562 217.960938 88.496094 218.785156 88.851562 219.582031 C 89.203125 220.375 89.640625 221.148438 90.160156 221.871094 C 90.683594 222.589844 91.273438 223.28125 91.945312 223.894531 C 92.621094 224.507812 93.355469 225.074219 94.160156 225.550781 L 94.460938 225.730469 L 94.769531 225.898438 C 94.875 225.953125 94.976562 226.011719 95.082031 226.0625 L 95.402344 226.214844 C 95.613281 226.324219 95.832031 226.40625 96.054688 226.5 L 96.21875 226.570312 L 96.722656 226.757812 C 96.835938 226.804688 96.949219 226.835938 97.0625 226.875 L 97.410156 226.984375 C 97.640625 227.050781 97.875 227.109375 98.113281 227.175781 C 98.347656 227.234375 98.585938 227.277344 98.828125 227.332031 L 99.558594 227.460938 C 99.3125 227.492188 99.066406 227.523438 98.820312 227.550781 C 98.574219 227.566406 98.320312 227.582031 98.070312 227.589844 C 97.820312 227.589844 97.566406 227.601562 97.3125 227.589844 L 96.933594 227.570312 C 96.808594 227.5625 96.679688 227.558594 96.554688 227.542969 C 96.046875 227.496094 95.539062 227.421875 95.039062 227.3125 L 94.660156 227.230469 C 94.535156 227.203125 94.414062 227.164062 94.285156 227.132812 L 93.910156 227.03125 C 93.789062 226.992188 93.664062 226.949219 93.542969 226.910156 C 92.558594 226.574219 91.59375 226.140625 90.691406 225.589844 C 90.464844 225.449219 90.246094 225.300781 90.019531 225.15625 C 89.808594 225 89.585938 224.847656 89.375 224.683594 C 88.953125 224.355469 88.542969 224.011719 88.160156 223.632812 C 87.386719 222.878906 86.683594 222.042969 86.078125 221.128906 C 86 221.015625 85.925781 220.898438 85.855469 220.78125 L 85.644531 220.429688 C 85.503906 220.191406 85.378906 219.945312 85.246094 219.703125 C 85.125 219.457031 85.007812 219.203125 84.890625 218.953125 C 84.785156 218.695312 84.671875 218.441406 84.574219 218.183594 C 84.183594 217.140625 83.90625 216.046875 83.75 214.933594 L 83.691406 214.515625 C 83.671875 214.375 83.667969 214.234375 83.652344 214.09375 L 83.621094 213.671875 L 83.601562 213.246094 L 83.589844 212.875 C 83.585938 212.738281 83.59375 212.578125 83.597656 212.429688 " fill-opacity="1" fill-rule="nonzero"/></g><g clip-path="url(#dc341d2582)"><path fill="#ffffff" d="M 83.5625 213.09375 L 83.550781 212.640625 L 83.519531 212.214844 C 83.433594 211.078125 83.222656 209.945312 82.886719 208.84375 C 82.554688 207.742188 82.09375 206.671875 81.519531 205.664062 C 80.945312 204.65625 80.261719 203.703125 79.484375 202.835938 C 78.699219 201.96875 77.828125 201.175781 76.871094 200.488281 C 75.910156 199.808594 74.878906 199.21875 73.789062 198.753906 C 72.699219 198.292969 71.554688 197.9375 70.382812 197.71875 C 69.214844 197.5 68.023438 197.402344 66.832031 197.4375 C 66.433594 197.449219 66.035156 197.476562 65.640625 197.515625 C 65.511719 197.324219 65.386719 197.136719 65.253906 196.949219 C 64.691406 196.152344 64.070312 195.394531 63.402344 194.683594 C 62.738281 193.96875 62.019531 193.300781 61.257812 192.6875 C 60.496094 192.074219 59.699219 191.507812 58.859375 191.007812 C 58.019531 190.503906 57.144531 190.058594 56.246094 189.671875 C 55.34375 189.289062 54.417969 188.972656 53.472656 188.714844 C 52.527344 188.460938 51.566406 188.273438 50.597656 188.15625 C 49.628906 188.035156 48.65625 187.980469 47.683594 187.996094 L 47 188.019531 L 46.621094 188.042969 L 46.230469 188.070312 C 45.980469 188.089844 45.746094 188.117188 45.5 188.140625 C 45.261719 188.167969 45.019531 188.207031 44.777344 188.242188 C 43.820312 188.390625 42.871094 188.605469 41.941406 188.886719 C 41.011719 189.167969 40.101562 189.511719 39.226562 189.917969 C 38.347656 190.320312 37.5 190.792969 36.691406 191.3125 C 35.882812 191.832031 35.113281 192.414062 34.386719 193.039062 C 33.664062 193.664062 32.984375 194.339844 32.355469 195.054688 C 31.460938 196.082031 30.671875 197.191406 30 198.363281 C 29.414062 198.3125 28.824219 198.292969 28.234375 198.308594 C 28.085938 198.3125 27.933594 198.316406 27.78125 198.324219 L 27.765625 198.328125 C 27.777344 198.328125 27.660156 198.328125 27.707031 198.328125 L 27.699219 198.328125 L 27.675781 198.332031 L 27.625 198.335938 L 27.527344 198.34375 L 27.328125 198.363281 L 27.132812 198.378906 C 27.0625 198.386719 27.007812 198.390625 26.921875 198.402344 L 26.441406 198.460938 C 26.113281 198.496094 25.828125 198.5625 25.527344 198.617188 C 25.378906 198.640625 25.234375 198.679688 25.085938 198.714844 L 24.648438 198.820312 C 24.359375 198.902344 24.070312 198.988281 23.785156 199.078125 L 23.359375 199.226562 C 23.21875 199.277344 23.078125 199.328125 22.941406 199.386719 C 22.664062 199.503906 22.386719 199.613281 22.117188 199.746094 L 21.714844 199.9375 L 21.320312 200.148438 C 20.800781 200.425781 20.300781 200.746094 19.816406 201.082031 C 19.578125 201.257812 19.34375 201.433594 19.113281 201.613281 L 18.609375 202.035156 L 18.128906 202.480469 C 18.023438 202.582031 17.921875 202.6875 17.820312 202.792969 C 17.71875 202.894531 17.617188 202.996094 17.519531 203.105469 L 17.230469 203.429688 L 17.085938 203.589844 L 16.953125 203.761719 L 16.683594 204.097656 C 16.507812 204.328125 16.34375 204.5625 16.179688 204.796875 C 15.863281 205.273438 15.558594 205.757812 15.304688 206.265625 C 15.242188 206.390625 15.175781 206.519531 15.113281 206.644531 L 14.941406 207.03125 C 14.820312 207.285156 14.726562 207.550781 14.621094 207.8125 C 14.570312 207.941406 14.527344 208.078125 14.484375 208.210938 L 14.351562 208.605469 C 14.277344 208.878906 14.199219 209.144531 14.136719 209.414062 C 14.082031 209.6875 14.011719 209.953125 13.972656 210.226562 L 13.90625 210.632812 C 13.886719 210.769531 13.875 210.90625 13.859375 211.042969 C 13.847656 211.179688 13.828125 211.316406 13.820312 211.453125 L 13.796875 211.859375 C 13.773438 212.132812 13.785156 212.40625 13.785156 212.675781 C 13.785156 212.808594 13.792969 212.945312 13.800781 213.078125 L 13.824219 213.480469 C 13.847656 213.75 13.882812 214.015625 13.917969 214.28125 C 13.96875 214.015625 14.003906 213.753906 14.058594 213.496094 L 14.144531 213.109375 C 14.167969 212.980469 14.195312 212.851562 14.234375 212.726562 C 14.304688 212.472656 14.363281 212.21875 14.449219 211.972656 L 14.566406 211.601562 C 14.605469 211.480469 14.652344 211.359375 14.699219 211.238281 C 14.746094 211.117188 14.785156 210.996094 14.835938 210.878906 L 14.984375 210.523438 C 15.078125 210.285156 15.199219 210.0625 15.304688 209.832031 C 15.417969 209.605469 15.546875 209.382812 15.664062 209.164062 C 15.796875 208.949219 15.917969 208.730469 16.054688 208.519531 C 16.195312 208.3125 16.328125 208.101562 16.480469 207.902344 L 16.699219 207.601562 C 16.777344 207.507812 16.855469 207.410156 16.933594 207.316406 C 17.242188 206.929688 17.578125 206.570312 17.917969 206.222656 C 18.097656 206.054688 18.273438 205.886719 18.453125 205.726562 L 18.730469 205.492188 L 18.867188 205.375 L 19.011719 205.265625 L 19.296875 205.042969 C 19.390625 204.96875 19.492188 204.902344 19.589844 204.832031 C 19.6875 204.765625 19.78125 204.691406 19.882812 204.628906 L 20.183594 204.4375 L 20.335938 204.339844 L 20.488281 204.25 L 20.796875 204.074219 C 21.003906 203.960938 21.214844 203.855469 21.425781 203.75 C 21.851562 203.550781 22.28125 203.363281 22.722656 203.214844 L 23.050781 203.101562 L 23.382812 203 C 23.601562 202.929688 23.828125 202.878906 24.050781 202.824219 C 24.164062 202.792969 24.277344 202.773438 24.390625 202.753906 L 24.726562 202.6875 C 24.953125 202.652344 25.179688 202.617188 25.402344 202.589844 L 25.742188 202.558594 C 25.855469 202.546875 25.96875 202.53125 26.082031 202.53125 C 26.308594 202.523438 26.546875 202.503906 26.746094 202.511719 L 27.054688 202.511719 C 27.097656 202.507812 27.171875 202.515625 27.238281 202.515625 L 27.433594 202.523438 L 27.632812 202.53125 L 27.734375 202.535156 L 27.78125 202.539062 L 27.8125 202.539062 C 27.863281 202.539062 27.753906 202.539062 27.765625 202.539062 L 27.777344 202.542969 C 27.886719 202.550781 28 202.558594 28.113281 202.574219 C 28.558594 202.621094 29 202.6875 29.433594 202.78125 C 29.867188 202.878906 30.292969 202.996094 30.710938 203.132812 L 32.308594 203.667969 L 33.351562 201.980469 C 34.121094 200.730469 35.046875 199.59375 36.09375 198.601562 C 36.617188 198.101562 37.171875 197.644531 37.75 197.21875 C 38.332031 196.792969 38.9375 196.414062 39.558594 196.070312 C 40.183594 195.726562 40.832031 195.433594 41.488281 195.175781 C 42.148438 194.917969 42.820312 194.707031 43.507812 194.539062 C 44.1875 194.371094 44.882812 194.25 45.582031 194.175781 C 45.753906 194.160156 45.929688 194.140625 46.105469 194.128906 C 46.277344 194.117188 46.460938 194.101562 46.625 194.09375 L 47.109375 194.082031 L 47.683594 194.082031 C 48.386719 194.101562 49.082031 194.15625 49.773438 194.261719 C 50.464844 194.367188 51.144531 194.519531 51.8125 194.710938 C 52.480469 194.902344 53.132812 195.140625 53.769531 195.417969 C 54.40625 195.695312 55.027344 196.015625 55.621094 196.375 C 56.214844 196.738281 56.789062 197.132812 57.332031 197.570312 C 57.875 198.003906 58.390625 198.476562 58.875 198.976562 C 59.359375 199.476562 59.808594 200.011719 60.222656 200.570312 C 60.640625 201.128906 61.019531 201.71875 61.355469 202.328125 L 62.554688 204.496094 L 64.84375 203.855469 C 65.582031 203.648438 66.335938 203.511719 67.105469 203.460938 C 67.871094 203.410156 68.648438 203.425781 69.414062 203.535156 C 70.175781 203.640625 70.933594 203.816406 71.664062 204.078125 C 72.394531 204.339844 73.109375 204.671875 73.777344 205.082031 C 74.449219 205.492188 75.082031 205.972656 75.660156 206.519531 C 76.238281 207.0625 76.769531 207.667969 77.230469 208.324219 C 77.351562 208.484375 77.453125 208.660156 77.566406 208.824219 C 77.671875 208.996094 77.773438 209.171875 77.875 209.34375 C 77.96875 209.523438 78.066406 209.703125 78.15625 209.882812 C 78.238281 210.066406 78.335938 210.25 78.410156 210.4375 C 78.730469 211.183594 78.972656 211.96875 79.140625 212.777344 L 79.199219 213.082031 L 79.242188 213.363281 C 79.257812 213.457031 79.273438 213.542969 79.289062 213.648438 L 79.320312 214.015625 L 79.339844 214.199219 L 79.347656 214.292969 L 79.347656 214.3125 L 79.351562 214.324219 C 79.351562 214.375 79.351562 214.269531 79.351562 214.28125 L 79.351562 214.324219 L 79.367188 214.636719 C 79.371094 214.742188 79.382812 214.847656 79.378906 214.949219 L 79.378906 215.265625 C 79.378906 216.105469 79.285156 216.953125 79.109375 217.789062 C 78.933594 218.625 78.664062 219.449219 78.308594 220.242188 C 77.957031 221.039062 77.523438 221.8125 77 222.535156 C 76.476562 223.253906 75.890625 223.945312 75.214844 224.558594 C 74.539062 225.171875 73.804688 225.738281 73.003906 226.214844 L 72.699219 226.394531 L 72.390625 226.5625 C 72.289062 226.617188 72.1875 226.675781 72.078125 226.726562 L 71.761719 226.878906 C 71.546875 226.988281 71.328125 227.070312 71.109375 227.164062 L 70.941406 227.234375 L 70.777344 227.296875 L 70.4375 227.421875 C 70.324219 227.46875 70.210938 227.5 70.097656 227.539062 L 69.75 227.648438 C 69.519531 227.714844 69.285156 227.773438 69.046875 227.839844 C 68.8125 227.894531 68.574219 227.941406 68.335938 227.996094 L 67.601562 228.125 C 67.847656 228.15625 68.09375 228.1875 68.339844 228.214844 C 68.589844 228.230469 68.839844 228.246094 69.09375 228.253906 C 69.34375 228.253906 69.597656 228.265625 69.847656 228.253906 L 70.226562 228.234375 C 70.351562 228.226562 70.480469 228.21875 70.605469 228.207031 C 71.113281 228.160156 71.621094 228.085938 72.121094 227.976562 L 72.5 227.894531 C 72.625 227.867188 72.75 227.828125 72.875 227.796875 L 73.25 227.695312 C 73.371094 227.65625 73.496094 227.613281 73.617188 227.574219 C 74.601562 227.238281 75.566406 226.804688 76.46875 226.253906 C 76.695312 226.113281 76.917969 225.964844 77.140625 225.820312 C 77.355469 225.664062 77.574219 225.511719 77.785156 225.347656 C 78.207031 225.019531 78.621094 224.675781 79.003906 224.296875 C 79.773438 223.542969 80.476562 222.707031 81.082031 221.792969 C 81.160156 221.679688 81.234375 221.5625 81.304688 221.445312 L 81.515625 221.09375 C 81.65625 220.855469 81.78125 220.609375 81.914062 220.367188 C 82.039062 220.121094 82.15625 219.867188 82.269531 219.617188 C 82.375 219.359375 82.488281 219.105469 82.585938 218.847656 C 82.976562 217.804688 83.253906 216.710938 83.414062 215.597656 L 83.46875 215.179688 C 83.488281 215.039062 83.492188 214.898438 83.507812 214.757812 L 83.542969 214.335938 L 83.558594 213.90625 L 83.570312 213.539062 C 83.574219 213.402344 83.566406 213.242188 83.5625 213.09375 " fill-opacity="1" fill-rule="nonzero"/></g></svg>